<svg width="63" height="61" viewBox="0 0 63 61" fill="none" xmlns="http://www.w3.org/2000/svg">
<g id="lizard">
<path id="Combined Shape" fill-rule="evenodd" clip-rule="evenodd" d="M58.1979 0.877165C55.8072 -0.336668 52.7125 0.0965112 49.4837 2.0963C46.9304 3.6779 44.5865 6.0801 43.3669 8.36544C41.0378 12.7293 41.9511 16.5772 42.5389 18.2018C41.7352 20.7547 40.6257 22.8761 39.2147 24.5636C38.0773 23.1383 37.4428 21.3427 37.4428 19.4645V19.373L40.4321 16.2875C40.7515 15.9577 41.5784 14.6582 40.432 13.4748C39.6796 12.6983 38.4595 12.6983 37.7071 13.4748L37.4426 13.7479V13.1268C37.4426 12.0286 36.5799 11.1381 35.5158 11.1381C34.4518 11.1381 33.5891 12.0286 33.5891 13.1268V13.7479L33.3246 13.4748C32.5722 12.6983 31.3521 12.6983 30.5997 13.4748C29.8472 14.2514 29.8472 15.5107 30.5997 16.2874L33.5892 19.3727V19.4643C33.5892 22.306 34.559 25.0225 36.2976 27.1661C33.1754 29.1988 29.1306 29.8873 24.1858 29.2176C22.4019 28.9758 20.6007 28.9457 18.8351 29.1223C16.6208 26.8876 13.586 25.6196 10.3894 25.6196H10.2994L7.26717 22.637C6.50407 21.8864 5.26649 21.8864 4.50327 22.637C3.74017 23.3877 3.74017 24.605 4.50327 25.3558L4.77159 25.6197H4.16142C3.08213 25.6197 2.20708 26.4804 2.20708 27.5421C2.20708 28.6037 3.08213 29.4641 4.16142 29.4641H4.77172L4.50327 29.7282C3.74017 30.4788 3.74017 31.6961 4.50327 32.4469C4.88494 32.8223 5.38508 33.01 5.88522 33.01C6.38535 33.01 6.88562 32.8223 7.26729 32.4469L10.2995 29.4642H10.3895C11.5728 29.4642 12.7225 29.7254 13.7647 30.2108C13.9054 30.1726 14.0465 30.1355 14.1879 30.0997C14.1447 30.1139 14.1015 30.1282 14.0584 30.1427C10.7516 31.2535 7.76893 33.1823 5.4332 35.7202C1.40545 40.0962 -0.069517 45.5538 1.16754 51.5033C2.0785 55.8842 4.1552 58.9883 4.24313 59.1184C4.61558 59.6688 5.23069 59.9854 5.87336 59.9854C6.03043 59.9854 6.18916 59.9664 6.34622 59.9276C7.14686 59.7289 7.73957 59.0508 7.83214 58.228C7.84244 58.1376 8.91085 49.1377 14.4286 44.0454C15.1314 43.3969 17.7882 41.3301 22.4729 41.9646C24.1264 42.1886 25.7259 42.3221 27.2704 42.3655C28.1174 44.0118 28.3786 45.9148 27.9821 47.7587L27.9629 47.848L24.3451 50.2005C23.4345 50.7928 23.1705 52.0198 23.7558 52.9412C24.341 53.863 25.5535 54.1297 26.4643 53.5377L26.7843 53.3295L26.6541 53.9346C26.4241 55.005 27.0949 56.0614 28.1525 56.2943C28.293 56.3252 28.433 56.3401 28.5711 56.3401C29.473 56.3401 30.2847 55.7064 30.4845 54.7782L30.6146 54.1731L30.8204 54.4971C31.1948 55.0869 31.8262 55.4087 32.471 55.4087C32.8337 55.4087 33.2008 55.3067 33.5288 55.0936C34.4392 54.5013 34.7032 53.2743 34.1179 52.3529L31.7932 48.6917L31.8124 48.6023C32.2721 46.4649 32.142 44.2738 31.4707 42.2498C36.8029 41.7849 41.3647 40.087 45.0962 37.1686C45.5372 36.8237 45.9657 36.4626 46.3814 36.0857C48.5073 37.917 51.2411 38.9422 54.1051 38.9422H54.1948L57.216 41.9247C57.5964 42.3003 58.0945 42.4879 58.593 42.4879C59.0912 42.4879 59.5897 42.3002 59.9699 41.9247C60.7303 41.1741 60.7303 39.9568 59.9699 39.2061L59.7026 38.942H60.3105C61.3857 38.9422 62.2576 38.0814 62.2576 37.0198C62.2576 35.9582 61.3857 35.0975 60.3102 35.0975H59.7023L59.9696 34.8336C60.7301 34.083 60.7301 32.8657 59.9696 32.1149C59.2093 31.3641 57.9764 31.3643 57.2158 32.1149L54.1947 35.0974H54.105C52.2283 35.0974 50.435 34.4394 49.0261 33.2608C51.1765 30.5606 52.8611 27.2953 54.0601 23.4962C57.1559 22.3957 59.3499 20.586 60.5877 18.1096C62.7805 13.7223 63.5562 3.5975 58.1979 0.877165Z" fill="#3B4262"/>
</g>
</svg>
