<svg width="49" height="57" viewBox="0 0 49 57" fill="none" xmlns="http://www.w3.org/2000/svg">
<path d="M43.9754 12.8367C43.6095 12.6963 43.2285 12.6354 42.8769 12.66C42.3688 12.6955 41.9585 12.9028 41.7154 13.242C40.2836 15.257 39.1109 19.0625 38.1652 22.1201C37.7312 23.5341 37.1486 25.4264 36.7267 26.3245C36.2866 23.8084 36.7837 14.5913 36.9765 11.0417L36.9797 10.9843C37.1134 8.51823 37.1314 8.08581 37.102 7.89589C36.8897 6.54311 36.35 5.65514 35.4975 5.25768C34.6357 4.85461 33.5165 5.03294 32.3107 5.76183C31.7063 6.12907 31.5391 7.38968 31.0202 13.1035L31.0183 13.1287C30.7326 16.2678 30.075 23.4957 29.2657 24.6994C28.3526 23.0153 27.0965 13.4467 26.5542 9.30496C26.1748 6.40426 25.9538 4.73875 25.8053 4.23582C25.4925 3.18198 24.1721 2.28525 22.8647 2.23557C21.7765 2.18132 20.8836 2.73742 20.4575 3.70369C19.6603 4.59499 19.9419 7.55074 20.8232 14.5513C21.2426 17.883 22.1084 24.7651 21.5635 25.537C20.4771 25.4184 18.6119 21.1076 16.0191 12.7207C15.2917 10.3719 15.0666 9.66549 14.8431 9.35626C14.4027 8.27916 12.9059 7.44837 11.5639 7.54223C11.4493 7.55025 11.3379 7.56518 11.2278 7.58628C10.5253 7.72645 8.92224 8.37605 9.26393 11.3739C10.2106 15.5302 11.2388 18.5819 12.2366 21.5438L12.2568 21.6031C12.8539 23.3772 13.4183 25.0535 13.9428 26.9138C15.179 31.3061 14.6983 34.0312 14.6924 34.062C14.6513 34.3425 14.5651 34.5137 14.4355 34.5736C14.3888 34.5956 14.329 34.6087 14.2616 34.6134C13.8699 34.6408 13.2822 34.3802 12.9793 34.2103C12.2876 32.8822 8.84339 26.5518 5.72247 25.6738L5.61035 25.6406L5.49689 25.6511C4.35222 25.7597 3.51056 26.1944 2.9962 26.9428C2.18109 28.1264 2.51849 29.6339 2.60034 29.9361L2.64635 30.0444C2.67182 30.09 5.17462 34.6739 5.56197 36.8063C5.896 38.6345 7.62413 40.6158 9.01352 42.2078L9.07075 42.2725C9.52398 42.7934 9.91517 43.2436 10.2236 43.6603C14.2551 47.8847 20.6308 51.4382 20.6828 51.4667C21.4783 52.0565 21.9206 52.6263 21.9673 53.1168C21.9969 53.4379 21.8309 53.6299 21.8251 53.6364L21.6863 53.7819L22.5676 54.6424L39.3883 53.4552L40.1054 50.1539C42.323 40.8297 41.8601 32.8795 41.8527 32.8265C41.8608 32.534 42.4824 29.7053 42.9822 27.4198L42.9969 27.3617C43.9933 22.8088 45.2324 17.1436 45.47 14.9889C45.5734 14.0677 44.9867 13.2213 43.9754 12.8367Z" fill="#3B4262"/>
</svg>
