<svg width="51" height="51" viewBox="0 0 51 51" fill="none" xmlns="http://www.w3.org/2000/svg">
<path d="M44.7357 15.9043C44.163 8.64833 36.0513 9.3892 36.0513 9.3892C32.6274 3.32578 27.2789 7.71764 27.2789 7.71764C23.1698 1.77506 18.0178 7.28179 18.0178 7.28179C9.13485 6.31943 9.47915 13.6157 9.47915 13.6157C9.2701 15.9351 10.731 23.1107 10.731 23.1107C9.4132 18.9749 6.5548 22.408 6.5548 22.408C3.04081 27.8558 5.68598 30.8379 5.68598 30.8379C10.4409 36.4366 20.5742 43.156 20.5742 43.156C24.2434 45.2678 22.6915 47.1508 22.6915 47.1508L44.8849 43.4667L45.3951 39.2384C48.7688 28.9874 44.7357 15.9043 44.7357 15.9043Z" fill="#3B4262"/>
</svg>
