<svg width="311" height="305" viewBox="0 0 311 305" fill="none" xmlns="http://www.w3.org/2000/svg">
<ellipse cx="262.5" cy="131.198" rx="47.5" ry="46.1984" fill="#B1B4C5"/>
<ellipse cx="262.5" cy="131.198" rx="47.5" ry="46.1984" fill="url(#paint0_linear_0_120)"/>
<ellipse cx="262.5" cy="132.151" rx="36.4646" ry="36.1967" fill="#E1E4ED"/>
<path d="M276.667 122.779C276.399 122.677 276.119 122.632 275.861 122.65C275.487 122.676 275.186 122.827 275.008 123.075C273.956 124.543 273.095 127.317 272.401 129.545C272.082 130.576 271.654 131.955 271.344 132.609C271.021 130.775 271.386 124.058 271.528 121.471L271.53 121.429C271.628 119.632 271.641 119.317 271.62 119.178C271.464 118.192 271.068 117.545 270.442 117.255C269.809 116.962 268.987 117.092 268.101 117.623C267.657 117.891 267.535 118.809 267.154 122.974L267.152 122.992C266.942 125.28 266.459 130.548 265.865 131.425C265.195 130.197 264.272 123.224 263.874 120.205C263.595 118.091 263.433 116.877 263.324 116.511C263.094 115.743 262.125 115.089 261.165 115.053C260.365 115.013 259.71 115.419 259.397 116.123C258.811 116.772 259.018 118.927 259.665 124.029C259.973 126.457 260.609 131.473 260.209 132.035C259.411 131.949 258.042 128.807 256.138 122.695C255.603 120.983 255.438 120.468 255.274 120.243C254.951 119.458 253.851 118.852 252.866 118.92C252.782 118.926 252.7 118.937 252.619 118.953C252.103 119.055 250.926 119.528 251.177 121.713C251.872 124.742 252.627 126.966 253.36 129.125L253.375 129.168C253.813 130.461 254.228 131.683 254.613 133.039C255.521 136.24 255.168 138.226 255.163 138.248C255.133 138.453 255.07 138.578 254.975 138.621C254.94 138.637 254.896 138.647 254.847 138.65C254.559 138.67 254.128 138.48 253.905 138.357C253.397 137.389 250.868 132.775 248.576 132.135L248.494 132.111L248.411 132.119C247.57 132.198 246.952 132.514 246.574 133.06C245.976 133.923 246.223 135.021 246.283 135.241L246.317 135.32C246.336 135.354 248.174 138.694 248.458 140.249C248.704 141.581 249.973 143.025 250.993 144.185L251.035 144.232C251.368 144.612 251.655 144.94 251.882 145.244C254.842 148.323 259.524 150.912 259.562 150.933C260.146 151.363 260.471 151.778 260.506 152.136C260.527 152.37 260.405 152.51 260.401 152.515L260.299 152.621L260.946 153.248L273.299 152.383L273.825 149.976C275.454 143.181 275.114 137.387 275.108 137.348C275.114 137.135 275.571 135.073 275.938 133.408L275.949 133.365C276.68 130.047 277.59 125.918 277.765 124.348C277.841 123.676 277.41 123.059 276.667 122.779Z" fill="#8A90AC"/>
<ellipse cx="47.5" cy="133.5" rx="47.5" ry="48.5" fill="#B1B4C5"/>
<ellipse cx="47.5" cy="131.35" rx="47.5" ry="46.3498" fill="url(#paint1_linear_0_120)"/>
<ellipse cx="47.4998" cy="132.306" rx="36.4646" ry="36.3153" fill="#E1E4ED"/>
<path d="M63.5786 135.087L63.0131 134.524C61.6621 133.178 59.4536 132.885 57.8042 133.829L54.2821 135.834L55.0162 119.775C55.0162 118.429 53.9166 117.333 52.564 117.333C52.2719 117.333 51.9908 117.385 51.73 117.479L51.8175 116.617C51.8175 115.255 50.7007 114.148 49.3294 114.148C48.0612 114.148 46.9975 115.095 46.8632 116.31L44.6031 129.909C44.5734 130.094 44.2517 130.076 44.2173 129.959L41.548 119.056C41.2559 118.042 40.3125 117.334 39.2536 117.334C38.5211 117.334 37.8401 117.662 37.384 118.234C36.9295 118.807 36.764 119.543 36.9327 120.253L37.4512 122.449C37.156 122.425 36.8593 122.464 36.5766 122.559C35.5238 122.908 34.8819 123.955 35.0521 125.061L36.6234 134.058C36.6234 137.607 37.2482 140.234 37.773 141.811C38.0713 142.711 38.2228 143.657 38.2228 144.624C38.2228 145.465 38.1056 146.303 37.8729 147.112L36.6546 151.36C36.5859 151.6 36.6343 151.858 36.7842 152.058C36.9357 152.257 37.1716 152.375 37.423 152.375H51.8175C52.0752 152.375 52.3157 152.252 52.4656 152.044C52.6171 151.836 52.6578 151.569 52.5765 151.326C52.5687 151.305 51.9002 149.249 52.5328 146.451C53.3356 145.803 56.1455 143.527 57.1544 142.609C58.8226 141.092 63.3926 136.404 63.5864 136.205C63.891 135.893 63.8878 135.395 63.5786 135.087Z" fill="#8A90AC"/>
<ellipse cx="155.5" cy="48.5" rx="47.5" ry="48.5" fill="#B1B4C5"/>
<ellipse cx="155.5" cy="46.3498" rx="47.5" ry="46.3498" fill="url(#paint2_linear_0_120)"/>
<ellipse cx="155.5" cy="47.3055" rx="36.4646" ry="36.3153" fill="#E1E4ED"/>
<path d="M145.981 46.9944L149.92 41.4787C148.282 41.207 145.276 41.1467 142.813 43.5993C138.931 47.4653 137.359 55.8168 137.032 57.8384L146.898 67.664C148.674 67.5125 156.537 66.4669 164.114 58.9209C164.195 58.7579 166.04 57.3997 164.531 55.8969C163.811 55.1796 162.619 55.1929 161.883 55.9258C161.508 56.2989 160.926 56.3044 160.559 55.939C160.192 55.5737 160.197 54.9934 160.572 54.6203L163.249 51.9538C164.61 50.5987 163.328 48.3126 161.429 48.8618L159.236 50.7307C158.836 51.0782 158.241 51.018 157.912 50.6393C157.572 50.2472 157.645 49.6536 158.032 49.3194C165.689 42.6289 164.571 43.4347 169.497 38.8363C171.338 37.3101 169.022 34.6106 167.209 36.1562L155.292 46.8287C154.945 47.1227 154.414 47.1283 154.072 46.8153C153.679 46.4767 153.67 45.9888 153.927 45.6034L162.239 32.7338C163.454 31.0951 161.063 29.2751 159.783 30.9271L147.493 48.0458C147.197 48.4725 146.599 48.5705 146.192 48.272C145.784 47.9991 145.672 47.4065 145.981 46.9944Z" fill="#8A90AC"/>
<ellipse cx="220.5" cy="255.5" rx="47.5" ry="48.5" fill="#B1B4C5"/>
<ellipse cx="220.5" cy="253.35" rx="47.5" ry="46.3498" fill="url(#paint3_linear_0_120)"/>
<ellipse cx="220.5" cy="254.306" rx="36.4646" ry="36.3153" fill="#E1E4ED"/>
<path d="M234.625 249.09C234.205 243.784 228.248 244.326 228.248 244.326C225.734 239.892 221.806 243.104 221.806 243.104C218.789 238.758 215.005 242.785 215.005 242.785C208.482 242.081 208.735 247.416 208.735 247.416C208.581 249.112 209.654 254.359 209.654 254.359C208.686 251.335 206.587 253.845 206.587 253.845C204.007 257.829 205.949 260.009 205.949 260.009C209.441 264.103 216.882 269.016 216.882 269.016C219.577 270.56 218.437 271.937 218.437 271.937L234.735 269.243L235.11 266.152C237.587 258.656 234.625 249.09 234.625 249.09Z" fill="#8A90AC"/>
<ellipse cx="89.5" cy="255.5" rx="47.5" ry="48.5" fill="#B1B4C5"/>
<ellipse cx="89.5" cy="253.35" rx="47.5" ry="46.3498" fill="url(#paint4_linear_0_120)"/>
<ellipse cx="89.4998" cy="254.306" rx="36.4646" ry="36.3153" fill="#E1E4ED"/>
<path fill-rule="evenodd" clip-rule="evenodd" d="M106.991 237.068C105.425 236.272 103.397 236.556 101.282 237.867C99.6092 238.904 98.0736 240.478 97.2745 241.976C95.7486 244.836 96.3469 247.358 96.7321 248.423C96.2055 250.096 95.4786 251.486 94.5541 252.592C93.8089 251.658 93.3932 250.481 93.3932 249.25V249.19L95.3517 247.168C95.561 246.952 96.1028 246.1 95.3516 245.324C94.8587 244.816 94.0594 244.816 93.5664 245.324L93.3931 245.503V245.096C93.3931 244.377 92.8278 243.793 92.1307 243.793C91.4336 243.793 90.8684 244.377 90.8684 245.096V245.503L90.6951 245.324C90.2022 244.816 89.4028 244.816 88.9098 245.324C88.4168 245.833 88.4168 246.659 88.9098 247.168L90.8685 249.19V249.25C90.8685 251.112 91.5038 252.893 92.6429 254.298C90.5973 255.63 87.9473 256.081 84.7076 255.642C83.5388 255.484 82.3587 255.464 81.2019 255.58C79.7512 254.115 77.7629 253.284 75.6686 253.284H75.6096L73.623 251.329C73.123 250.837 72.3122 250.837 71.8121 251.329C71.3122 251.821 71.3122 252.619 71.8121 253.111L71.9879 253.284H71.5882C70.881 253.284 70.3077 253.848 70.3077 254.544C70.3077 255.24 70.881 255.804 71.5882 255.804H71.988L71.8121 255.977C71.3122 256.469 71.3122 257.267 71.8121 257.759C72.0622 258.005 72.3899 258.128 72.7176 258.128C73.0452 258.128 73.373 258.005 73.6231 257.759L75.6097 255.804H75.6686C76.4439 255.804 77.1971 255.975 77.88 256.293C77.9722 256.268 78.0646 256.244 78.1572 256.22L78.0724 256.249C75.9059 256.977 73.9517 258.241 72.4214 259.904C69.7825 262.772 68.8162 266.349 69.6267 270.249C70.2235 273.12 71.5841 275.154 71.6417 275.24C71.8857 275.6 72.2887 275.808 72.7098 275.808C72.8127 275.808 72.9167 275.795 73.0196 275.77C73.5441 275.64 73.9325 275.195 73.9931 274.656C73.9999 274.597 74.6999 268.698 78.315 265.361C78.7754 264.936 80.5161 263.581 83.5854 263.997C84.6687 264.144 85.7166 264.231 86.7285 264.26C87.2835 265.339 87.4546 266.586 87.1948 267.794L87.1823 267.853L84.8119 269.395C84.2154 269.783 84.0424 270.587 84.4259 271.191C84.8093 271.795 85.6037 271.97 86.2004 271.582L86.4101 271.445L86.3248 271.842C86.174 272.544 86.6135 273.236 87.3065 273.389C87.3985 273.409 87.4902 273.419 87.5807 273.419C88.1716 273.419 88.7035 273.003 88.8343 272.395L88.9196 271.998L89.0544 272.211C89.2997 272.597 89.7134 272.808 90.1358 272.808C90.3734 272.808 90.614 272.741 90.8289 272.602C91.4254 272.213 91.5983 271.409 91.2148 270.805L89.6917 268.406L89.7043 268.347C90.0055 266.946 89.9203 265.51 89.4805 264.184C92.974 263.879 95.9627 262.766 98.4075 260.853C98.6965 260.627 98.9772 260.391 99.2496 260.144C100.642 261.344 102.433 262.016 104.31 262.016H104.369L106.348 263.971C106.597 264.217 106.924 264.34 107.25 264.34C107.577 264.34 107.903 264.217 108.152 263.971C108.651 263.479 108.651 262.681 108.152 262.189L107.977 262.016H108.375C109.08 262.016 109.651 261.452 109.651 260.756C109.651 260.06 109.08 259.496 108.375 259.496H107.977L108.152 259.323C108.65 258.831 108.65 258.033 108.152 257.541C107.654 257.049 106.846 257.049 106.348 257.541L104.369 259.496H104.31C103.08 259.496 101.905 259.065 100.982 258.292C102.391 256.523 103.495 254.382 104.28 251.893C106.309 251.171 107.746 249.985 108.557 248.362C109.994 245.487 110.502 238.851 106.991 237.068Z" fill="#8A90AC"/>
<rect x="74.0298" y="81.292" width="30.1625" height="2.45657" rx="1.22828" transform="rotate(-40 74.0298 81.292)" fill="#B1B4C5"/>
<path fill-rule="evenodd" clip-rule="evenodd" d="M89.0602 62.2922C89.1107 61.6639 89.6686 61.2005 90.2955 61.266L97.7111 62.0414C98.3171 62.1048 98.7619 62.6402 98.713 63.2476C98.6625 63.8758 98.1046 64.3393 97.4777 64.2737L90.0621 63.4984C89.4561 63.435 89.0113 62.8996 89.0602 62.2922Z" fill="#B1B4C5"/>
<path fill-rule="evenodd" clip-rule="evenodd" d="M96.9295 71.6711C96.3229 71.6138 95.8729 71.0828 95.9157 70.475L96.4398 63.0374C96.4841 62.4087 97.0374 61.9397 97.6649 61.999C98.2715 62.0564 98.7216 62.5873 98.6787 63.1952L98.1546 70.6327C98.1103 71.2615 97.557 71.7305 96.9295 71.6711Z" fill="#B1B4C5"/>
<rect width="30.1625" height="2.45657" rx="1.22828" transform="matrix(0.766044 0.642788 0.642788 -0.766044 210.577 62.417)" fill="#B1B4C5"/>
<path fill-rule="evenodd" clip-rule="evenodd" d="M225.608 81.4168C225.658 82.0451 226.216 82.5085 226.843 82.443L234.258 81.6676C234.865 81.6042 235.309 81.0688 235.26 80.4614C235.21 79.8332 234.652 79.3697 234.025 79.4353L226.609 80.2106C226.003 80.274 225.559 80.8094 225.608 81.4168Z" fill="#B1B4C5"/>
<path fill-rule="evenodd" clip-rule="evenodd" d="M233.477 72.0379C232.87 72.0952 232.42 72.6262 232.463 73.234L232.987 80.6716C233.031 81.3003 233.585 81.7693 234.212 81.71C234.819 81.6526 235.269 81.1216 235.226 80.5138L234.702 73.0762C234.658 72.4475 234.104 71.9785 233.477 72.0379Z" fill="#B1B4C5"/>
<rect x="276.874" y="188.669" width="30.1625" height="2.45657" rx="1.22828" transform="rotate(127 276.874 188.669)" fill="#B1B4C5"/>
<path fill-rule="evenodd" clip-rule="evenodd" d="M266.502 210.563C266.595 211.186 266.155 211.763 265.53 211.84L258.13 212.753C257.525 212.828 256.971 212.406 256.882 211.803C256.79 211.18 257.229 210.603 257.855 210.525L265.255 209.613C265.86 209.538 266.413 209.96 266.502 210.563Z" fill="#B1B4C5"/>
<path fill-rule="evenodd" clip-rule="evenodd" d="M256.725 203.195C257.329 203.114 257.887 203.53 257.982 204.132L259.144 211.497C259.242 212.119 258.809 212.701 258.184 212.784C257.58 212.865 257.022 212.449 256.927 211.847L255.765 204.482C255.666 203.859 256.1 203.278 256.725 203.195Z" fill="#B1B4C5"/>
<rect width="29.8901" height="2.5" rx="1.25" transform="matrix(-1 0 0 1 171 279.25)" fill="#B1B4C5"/>
<path fill-rule="evenodd" clip-rule="evenodd" d="M147.508 274.292C147.062 273.827 146.318 273.831 145.876 274.3L140.74 279.756C140.329 280.193 140.332 280.875 140.748 281.308C141.194 281.773 141.939 281.769 142.38 281.3L147.516 275.844C147.927 275.407 147.924 274.725 147.508 274.292Z" fill="#B1B4C5"/>
<path fill-rule="evenodd" clip-rule="evenodd" d="M147.509 286.708C147.924 286.275 147.927 285.593 147.516 285.156L142.38 279.7C141.939 279.231 141.194 279.227 140.748 279.692C140.332 280.125 140.329 280.807 140.74 281.244L145.876 286.7C146.318 287.169 147.062 287.173 147.509 286.708Z" fill="#B1B4C5"/>
<rect width="30.1625" height="2.45657" rx="1.22828" transform="matrix(-0.601815 -0.798635 -0.798635 0.601815 54.522 212.979)" fill="#B1B4C5"/>
<path fill-rule="evenodd" clip-rule="evenodd" d="M44.1509 191.086C44.243 190.462 43.8036 189.885 43.1781 189.808L35.7781 188.895C35.1734 188.821 34.6196 189.242 34.5306 189.845C34.4385 190.469 34.8778 191.046 35.5034 191.123L42.9033 192.036C43.5081 192.11 44.0619 191.689 44.1509 191.086Z" fill="#B1B4C5"/>
<path fill-rule="evenodd" clip-rule="evenodd" d="M34.3732 198.454C34.9772 198.535 35.5351 198.118 35.6301 197.516L36.7926 190.152C36.8908 189.529 36.4572 188.948 35.8324 188.864C35.2284 188.784 34.6705 189.2 34.5755 189.802L33.4131 197.167C33.3148 197.789 33.7484 198.371 34.3732 198.454Z" fill="#B1B4C5"/>
<rect width="78.517" height="2.45977" rx="1.22989" transform="matrix(-1 0 0 1 195.504 126.296)" fill="#B1B4C5"/>
<path fill-rule="evenodd" clip-rule="evenodd" d="M123.431 121.397C122.988 120.947 122.262 120.951 121.823 121.405L116.635 126.772C116.211 127.211 116.214 127.908 116.642 128.342C117.086 128.792 117.812 128.788 118.25 128.334L123.439 122.967C123.863 122.528 123.859 121.831 123.431 121.397Z" fill="#B1B4C5"/>
<path fill-rule="evenodd" clip-rule="evenodd" d="M123.431 133.655C123.86 133.221 123.863 132.524 123.439 132.085L118.25 126.718C117.812 126.264 117.086 126.26 116.642 126.71C116.214 127.144 116.211 127.841 116.635 128.279L121.823 133.647C122.262 134.101 122.988 134.104 123.431 133.655Z" fill="#B1B4C5"/>
<path d="M151.164 134.857C151.164 135.237 151.04 135.527 150.792 135.727C150.548 135.923 150.232 136.021 149.844 136.021H148.5C148.48 136.021 148.462 136.015 148.446 136.003C148.434 135.987 148.428 135.969 148.428 135.949V131.893C148.428 131.873 148.434 131.857 148.446 131.845C148.462 131.829 148.48 131.821 148.5 131.821H149.754C150.182 131.821 150.514 131.917 150.75 132.109C150.986 132.297 151.104 132.585 151.104 132.973C151.104 133.369 150.95 133.655 150.642 133.831C150.622 133.843 150.62 133.855 150.636 133.867C150.988 134.067 151.164 134.397 151.164 134.857ZM149.304 132.547C149.284 132.547 149.274 132.557 149.274 132.577V133.519C149.274 133.539 149.284 133.549 149.304 133.549H149.76C149.92 133.549 150.046 133.505 150.138 133.417C150.23 133.329 150.276 133.207 150.276 133.051C150.276 132.891 150.23 132.767 150.138 132.679C150.05 132.591 149.924 132.547 149.76 132.547H149.304ZM149.808 135.289C149.968 135.289 150.092 135.243 150.18 135.151C150.272 135.055 150.318 134.921 150.318 134.749C150.318 134.577 150.272 134.443 150.18 134.347C150.092 134.247 149.968 134.197 149.808 134.197H149.304C149.284 134.197 149.274 134.207 149.274 134.227V135.259C149.274 135.279 149.284 135.289 149.304 135.289H149.808ZM154.248 132.475C154.248 132.495 154.24 132.513 154.224 132.529C154.212 132.541 154.196 132.547 154.176 132.547H152.568C152.548 132.547 152.538 132.557 152.538 132.577V133.513C152.538 133.533 152.548 133.543 152.568 133.543H153.57C153.59 133.543 153.606 133.551 153.618 133.567C153.634 133.579 153.642 133.595 153.642 133.615V134.197C153.642 134.217 153.634 134.235 153.618 134.251C153.606 134.263 153.59 134.269 153.57 134.269H152.568C152.548 134.269 152.538 134.279 152.538 134.299V135.265C152.538 135.285 152.548 135.295 152.568 135.295H154.176C154.196 135.295 154.212 135.303 154.224 135.319C154.24 135.331 154.248 135.347 154.248 135.367V135.949C154.248 135.969 154.24 135.987 154.224 136.003C154.212 136.015 154.196 136.021 154.176 136.021H151.764C151.744 136.021 151.726 136.015 151.71 136.003C151.698 135.987 151.692 135.969 151.692 135.949V131.893C151.692 131.873 151.698 131.857 151.71 131.845C151.726 131.829 151.744 131.821 151.764 131.821H154.176C154.196 131.821 154.212 131.829 154.224 131.845C154.24 131.857 154.248 131.873 154.248 131.893V132.475ZM157.023 136.021C156.979 136.021 156.951 136.001 156.939 135.961L156.801 135.373C156.797 135.357 156.787 135.349 156.771 135.349H155.649C155.633 135.349 155.623 135.357 155.619 135.373L155.481 135.961C155.469 136.001 155.443 136.021 155.403 136.021H154.677C154.625 136.021 154.605 135.995 154.617 135.943L155.697 131.881C155.709 131.841 155.737 131.821 155.781 131.821H156.651C156.695 131.821 156.723 131.841 156.735 131.881L157.815 135.943L157.821 135.967C157.821 136.003 157.799 136.021 157.755 136.021H157.023ZM155.781 134.659C155.777 134.671 155.779 134.681 155.787 134.689C155.795 134.693 155.803 134.695 155.811 134.695H156.603C156.611 134.695 156.619 134.693 156.627 134.689C156.635 134.681 156.637 134.671 156.633 134.659L156.219 132.919C156.215 132.903 156.209 132.895 156.201 132.895C156.193 132.895 156.187 132.903 156.183 132.919L155.781 134.659ZM160.437 131.821C160.457 131.821 160.473 131.829 160.485 131.845C160.501 131.857 160.509 131.873 160.509 131.893V132.481C160.509 132.501 160.501 132.519 160.485 132.535C160.473 132.547 160.457 132.553 160.437 132.553H159.525C159.505 132.553 159.495 132.563 159.495 132.583V135.949C159.495 135.969 159.487 135.987 159.471 136.003C159.459 136.015 159.443 136.021 159.423 136.021H158.721C158.701 136.021 158.683 136.015 158.667 136.003C158.655 135.987 158.649 135.969 158.649 135.949V132.583C158.649 132.563 158.639 132.553 158.619 132.553H157.737C157.717 132.553 157.699 132.547 157.683 132.535C157.671 132.519 157.665 132.501 157.665 132.481V131.893C157.665 131.873 157.671 131.857 157.683 131.845C157.699 131.829 157.717 131.821 157.737 131.821H160.437ZM162.227 136.069C161.951 136.069 161.709 136.021 161.501 135.925C161.293 135.825 161.131 135.687 161.015 135.511C160.903 135.331 160.847 135.125 160.847 134.893V134.737C160.847 134.717 160.853 134.701 160.865 134.689C160.881 134.673 160.899 134.665 160.919 134.665H161.609C161.629 134.665 161.645 134.673 161.657 134.689C161.673 134.701 161.681 134.717 161.681 134.737V134.851C161.681 134.991 161.733 135.109 161.837 135.205C161.941 135.297 162.081 135.343 162.257 135.343C162.413 135.343 162.531 135.303 162.611 135.223C162.695 135.143 162.737 135.041 162.737 134.917C162.737 134.825 162.711 134.747 162.659 134.683C162.607 134.615 162.533 134.553 162.437 134.497C162.345 134.437 162.201 134.357 162.005 134.257C161.765 134.137 161.569 134.025 161.417 133.921C161.265 133.817 161.135 133.683 161.027 133.519C160.919 133.355 160.865 133.157 160.865 132.925C160.865 132.693 160.919 132.491 161.027 132.319C161.139 132.143 161.295 132.009 161.495 131.917C161.695 131.821 161.923 131.773 162.179 131.773C162.447 131.773 162.685 131.825 162.893 131.929C163.101 132.029 163.263 132.171 163.379 132.355C163.495 132.539 163.553 132.751 163.553 132.991V133.111C163.553 133.131 163.545 133.149 163.529 133.165C163.517 133.177 163.501 133.183 163.481 133.183H162.791C162.771 133.183 162.753 133.177 162.737 133.165C162.725 133.149 162.719 133.131 162.719 133.111V133.003C162.719 132.859 162.669 132.739 162.569 132.643C162.469 132.547 162.333 132.499 162.161 132.499C162.017 132.499 161.903 132.537 161.819 132.613C161.739 132.685 161.699 132.787 161.699 132.919C161.699 133.011 161.723 133.091 161.771 133.159C161.819 133.227 161.893 133.293 161.993 133.357C162.093 133.417 162.245 133.497 162.449 133.597L162.575 133.669C162.807 133.797 162.987 133.909 163.115 134.005C163.247 134.097 163.357 134.215 163.445 134.359C163.533 134.503 163.577 134.677 163.577 134.881C163.577 135.245 163.453 135.535 163.205 135.751C162.961 135.963 162.635 136.069 162.227 136.069Z" fill="#B1B4C5"/>
<g clip-path="url(#clip0_0_120)">
<rect x="107.239" y="158.334" width="78.517" height="2.45977" rx="1.22989" transform="rotate(40 107.239 158.334)" fill="#B1B4C5"/>
<path fill-rule="evenodd" clip-rule="evenodd" d="M165.6 200.909C166.228 200.85 166.782 201.319 166.826 201.949L167.351 209.396C167.394 210.004 166.943 210.536 166.336 210.593C165.707 210.653 165.153 210.183 165.109 209.554L164.585 202.107C164.542 201.498 164.992 200.967 165.6 200.909Z" fill="#B1B4C5"/>
<path fill-rule="evenodd" clip-rule="evenodd" d="M157.72 210.3C157.671 209.692 158.116 209.156 158.723 209.092L166.148 208.315C166.776 208.25 167.334 208.714 167.385 209.343C167.434 209.951 166.989 210.487 166.382 210.55L158.957 211.327C158.329 211.393 157.771 210.929 157.72 210.3Z" fill="#B1B4C5"/>
<path d="M137.361 177.928C137.116 178.219 136.835 178.361 136.517 178.355C136.204 178.348 135.899 178.22 135.601 177.971L134.572 177.107C134.556 177.094 134.547 177.078 134.542 177.059C134.543 177.039 134.55 177.021 134.563 177.006L137.17 173.898C137.183 173.883 137.198 173.875 137.215 173.873C137.237 173.871 137.256 173.877 137.271 173.89L138.232 174.696C138.56 174.971 138.753 175.258 138.81 175.557C138.87 175.852 138.775 176.149 138.526 176.446C138.271 176.749 137.969 176.869 137.62 176.806C137.597 176.803 137.588 176.81 137.593 176.83C137.734 177.209 137.656 177.575 137.361 177.928ZM137.421 174.963C137.405 174.95 137.391 174.951 137.378 174.966L136.773 175.688C136.76 175.703 136.761 175.717 136.777 175.73L137.126 176.023C137.249 176.126 137.373 176.173 137.5 176.165C137.627 176.157 137.741 176.093 137.841 175.973C137.944 175.851 137.989 175.726 137.975 175.6C137.964 175.476 137.896 175.361 137.77 175.256L137.421 174.963ZM136.044 177.387C136.167 177.49 136.291 177.534 136.418 177.52C136.55 177.506 136.672 177.433 136.782 177.301C136.893 177.169 136.944 177.037 136.935 176.905C136.932 176.771 136.869 176.653 136.746 176.551L136.36 176.227C136.345 176.214 136.331 176.215 136.318 176.23L135.654 177.021C135.642 177.036 135.643 177.05 135.658 177.063L136.044 177.387ZM141.254 178.085C141.241 178.1 141.224 178.109 141.201 178.111C141.184 178.113 141.168 178.107 141.153 178.094L139.921 177.06C139.906 177.048 139.891 177.049 139.879 177.064L139.277 177.781C139.264 177.796 139.265 177.811 139.281 177.823L140.048 178.467C140.064 178.48 140.071 178.497 140.07 178.517C140.074 178.536 140.07 178.554 140.057 178.569L139.683 179.015C139.67 179.03 139.652 179.039 139.63 179.041C139.613 179.042 139.597 179.036 139.582 179.024L138.814 178.38C138.799 178.367 138.785 178.368 138.772 178.383L138.151 179.123C138.138 179.139 138.139 179.153 138.154 179.166L139.386 180.199C139.402 180.212 139.409 180.228 139.408 180.248C139.412 180.268 139.408 180.285 139.395 180.301L139.021 180.746C139.008 180.762 138.99 180.77 138.968 180.772C138.951 180.774 138.935 180.768 138.92 180.755L137.072 179.205C137.057 179.192 137.047 179.176 137.042 179.156C137.043 179.136 137.05 179.119 137.063 179.103L139.67 175.996C139.683 175.981 139.698 175.973 139.715 175.971C139.737 175.969 139.756 175.975 139.772 175.987L141.619 177.538C141.635 177.551 141.642 177.567 141.641 177.587C141.645 177.607 141.641 177.624 141.628 177.639L141.254 178.085ZM141.101 182.585C141.067 182.557 141.058 182.524 141.075 182.486L141.347 181.946C141.354 181.932 141.352 181.919 141.34 181.909L140.48 181.188C140.468 181.177 140.455 181.177 140.442 181.187L139.958 181.548C139.923 181.571 139.89 181.57 139.86 181.544L139.304 181.078C139.264 181.044 139.265 181.011 139.308 180.979L142.746 178.562C142.781 178.539 142.815 178.541 142.849 178.57L143.516 179.129C143.549 179.157 143.558 179.191 143.541 179.229L141.758 183.035L141.747 183.057C141.724 183.085 141.695 183.084 141.662 183.056L141.101 182.585ZM141.025 180.744C141.014 180.75 141.009 180.759 141.01 180.771C141.014 180.779 141.019 180.786 141.025 180.791L141.631 181.3C141.637 181.305 141.645 181.308 141.654 181.311C141.665 181.31 141.673 181.303 141.677 181.291L142.479 179.692C142.486 179.678 142.487 179.668 142.48 179.662C142.474 179.657 142.465 179.66 142.451 179.669L141.025 180.744ZM146.415 181.562C146.431 181.575 146.438 181.591 146.437 181.611C146.441 181.631 146.437 181.648 146.424 181.664L146.046 182.114C146.033 182.129 146.016 182.138 145.993 182.14C145.976 182.141 145.96 182.136 145.945 182.123L145.246 181.537C145.231 181.524 145.217 181.525 145.204 181.54L143.04 184.119C143.027 184.134 143.01 184.143 142.987 184.145C142.97 184.146 142.954 184.141 142.939 184.128L142.401 183.677C142.386 183.664 142.376 183.648 142.371 183.628C142.372 183.608 142.379 183.59 142.392 183.575L144.556 180.997C144.569 180.981 144.567 180.967 144.552 180.954L143.876 180.387C143.861 180.375 143.851 180.358 143.847 180.339C143.848 180.319 143.855 180.301 143.868 180.286L144.246 179.836C144.258 179.82 144.273 179.812 144.29 179.81C144.313 179.808 144.332 179.814 144.347 179.827L146.415 181.562ZM145.056 185.967C144.845 185.79 144.691 185.598 144.593 185.39C144.498 185.18 144.462 184.97 144.487 184.761C144.517 184.551 144.606 184.357 144.755 184.179L144.856 184.06C144.868 184.045 144.883 184.036 144.9 184.035C144.923 184.033 144.942 184.038 144.957 184.051L145.486 184.495C145.501 184.507 145.508 184.524 145.507 184.544C145.511 184.563 145.507 184.581 145.494 184.596L145.421 184.683C145.331 184.791 145.295 184.914 145.313 185.055C145.334 185.192 145.411 185.317 145.546 185.43C145.666 185.531 145.782 185.576 145.894 185.566C146.01 185.559 146.108 185.508 146.188 185.413C146.247 185.342 146.277 185.266 146.278 185.183C146.282 185.098 146.265 185.003 146.228 184.898C146.196 184.793 146.137 184.639 146.051 184.437C145.944 184.19 145.866 183.979 145.817 183.801C145.767 183.624 145.754 183.438 145.776 183.243C145.799 183.048 145.885 182.861 146.034 182.683C146.183 182.506 146.354 182.386 146.548 182.323C146.747 182.261 146.952 182.258 147.165 182.316C147.379 182.371 147.585 182.481 147.781 182.646C147.986 182.818 148.135 183.011 148.228 183.224C148.323 183.434 148.356 183.647 148.326 183.863C148.297 184.078 148.205 184.278 148.051 184.462L147.974 184.554C147.961 184.569 147.943 184.578 147.921 184.58C147.904 184.581 147.887 184.575 147.872 184.563L147.344 184.119C147.328 184.106 147.318 184.09 147.314 184.071C147.315 184.051 147.322 184.033 147.335 184.018L147.404 183.935C147.497 183.825 147.536 183.701 147.521 183.563C147.506 183.425 147.432 183.301 147.301 183.19C147.19 183.098 147.079 183.053 146.965 183.058C146.858 183.061 146.762 183.114 146.677 183.215C146.618 183.285 146.585 183.362 146.578 183.445C146.571 183.528 146.585 183.626 146.62 183.739C146.658 183.85 146.723 184.009 146.815 184.216L146.866 184.353C146.961 184.6 147.027 184.801 147.063 184.957C147.105 185.112 147.114 185.273 147.089 185.44C147.064 185.607 146.985 185.769 146.854 185.925C146.62 186.204 146.339 186.346 146.01 186.352C145.687 186.358 145.369 186.23 145.056 185.967Z" fill="#B1B4C5"/>
</g>
<g clip-path="url(#clip1_0_120)">
<rect x="142.47" y="209.763" width="78.517" height="2.45977" rx="1.22989" transform="rotate(-40 142.47 209.763)" fill="#B1B4C5"/>
<path fill-rule="evenodd" clip-rule="evenodd" d="M194.532 159.682C194.583 159.053 195.142 158.589 195.769 158.654L203.194 159.431C203.801 159.495 204.246 160.031 204.197 160.639C204.147 161.268 203.588 161.732 202.96 161.666L195.535 160.89C194.929 160.826 194.483 160.29 194.532 159.682Z" fill="#B1B4C5"/>
<path fill-rule="evenodd" clip-rule="evenodd" d="M202.411 169.073C201.804 169.015 201.354 168.484 201.396 167.875L201.921 160.428C201.965 159.798 202.519 159.329 203.147 159.388C203.755 159.446 204.205 159.977 204.163 160.586L203.638 168.033C203.594 168.662 203.04 169.132 202.411 169.073Z" fill="#B1B4C5"/>
<path d="M166.997 183.502C167.241 183.793 167.332 184.095 167.271 184.407C167.21 184.714 167.031 184.992 166.734 185.242L165.704 186.106C165.689 186.118 165.671 186.125 165.651 186.127C165.632 186.122 165.615 186.112 165.603 186.097L162.995 182.99C162.983 182.974 162.977 182.958 162.978 182.941C162.98 182.919 162.989 182.901 163.004 182.888L163.965 182.082C164.293 181.807 164.609 181.667 164.913 181.663C165.215 181.655 165.49 181.8 165.74 182.097C165.994 182.4 166.06 182.718 165.937 183.051C165.93 183.073 165.936 183.084 165.956 183.083C166.354 183.01 166.701 183.149 166.997 183.502ZM164.087 182.928C164.071 182.94 164.07 182.955 164.083 182.97L164.689 183.691C164.701 183.707 164.716 183.708 164.731 183.695L165.08 183.402C165.203 183.299 165.271 183.185 165.285 183.058C165.299 182.931 165.256 182.808 165.155 182.689C165.053 182.566 164.938 182.501 164.811 182.493C164.687 182.482 164.562 182.529 164.436 182.634L164.087 182.928ZM166.235 184.704C166.358 184.601 166.423 184.486 166.432 184.359C166.44 184.227 166.39 184.094 166.279 183.963C166.168 183.831 166.047 183.758 165.915 183.743C165.783 183.723 165.656 183.765 165.534 183.868L165.147 184.192C165.132 184.204 165.131 184.219 165.144 184.234L165.807 185.024C165.82 185.04 165.834 185.041 165.849 185.028L166.235 184.704ZM167.828 179.695C167.84 179.71 167.846 179.729 167.844 179.751C167.842 179.768 167.834 179.783 167.819 179.796L166.587 180.83C166.572 180.843 166.57 180.857 166.583 180.872L167.185 181.589C167.198 181.604 167.212 181.606 167.227 181.593L167.995 180.949C168.01 180.936 168.027 180.932 168.047 180.936C168.067 180.935 168.083 180.942 168.096 180.958L168.47 181.403C168.483 181.419 168.489 181.438 168.487 181.46C168.485 181.477 168.477 181.492 168.461 181.505L167.694 182.149C167.678 182.162 167.677 182.176 167.69 182.191L168.311 182.931C168.324 182.946 168.338 182.948 168.353 182.935L169.585 181.901C169.6 181.888 169.618 181.884 169.637 181.889C169.657 181.888 169.674 181.895 169.687 181.91L170.061 182.356C170.074 182.371 170.079 182.39 170.077 182.413C170.076 182.43 170.067 182.445 170.052 182.457L168.204 184.008C168.189 184.021 168.171 184.028 168.151 184.029C168.132 184.024 168.116 184.014 168.103 183.999L165.495 180.892C165.483 180.877 165.477 180.86 165.478 180.843C165.48 180.821 165.489 180.803 165.504 180.79L167.352 179.24C167.367 179.227 167.385 179.223 167.404 179.228C167.424 179.226 167.441 179.234 167.454 179.249L167.828 179.695ZM172.233 180.627C172.199 180.655 172.165 180.658 172.13 180.635L171.646 180.273C171.633 180.264 171.62 180.264 171.608 180.274L170.748 180.996C170.736 181.006 170.734 181.018 170.741 181.033L171.013 181.572C171.03 181.611 171.023 181.643 170.992 181.668L170.436 182.135C170.396 182.169 170.364 182.161 170.34 182.114L168.556 178.308C168.54 178.27 168.548 178.236 168.582 178.208L169.248 177.649C169.282 177.621 169.316 177.618 169.351 177.641L172.79 180.058L172.81 180.073C172.833 180.1 172.827 180.128 172.794 180.157L172.233 180.627ZM170.406 180.382C170.411 180.394 170.419 180.4 170.43 180.401C170.439 180.399 170.446 180.396 170.452 180.39L171.059 179.881C171.065 179.876 171.07 179.87 171.073 179.861C171.074 179.85 171.07 179.841 171.059 179.834L169.623 178.768C169.61 178.758 169.6 178.756 169.594 178.761C169.588 178.766 169.588 178.776 169.596 178.791L170.406 180.382ZM172.148 175.216C172.163 175.203 172.181 175.199 172.2 175.203C172.22 175.202 172.237 175.209 172.25 175.225L172.627 175.675C172.64 175.69 172.646 175.709 172.644 175.732C172.642 175.749 172.634 175.764 172.619 175.776L171.92 176.363C171.905 176.375 171.903 176.39 171.916 176.405L174.08 178.983C174.093 178.999 174.098 179.018 174.096 179.04C174.095 179.057 174.086 179.072 174.071 179.085L173.533 179.536C173.518 179.549 173.5 179.556 173.48 179.557C173.461 179.552 173.445 179.543 173.432 179.527L171.268 176.949C171.255 176.933 171.241 176.932 171.226 176.945L170.55 177.512C170.535 177.525 170.517 177.532 170.497 177.533C170.478 177.528 170.462 177.518 170.449 177.503L170.071 177.053C170.058 177.037 170.052 177.021 170.054 177.004C170.056 176.982 170.064 176.964 170.08 176.951L172.148 175.216ZM176.25 177.319C176.039 177.496 175.823 177.615 175.602 177.675C175.378 177.732 175.165 177.731 174.963 177.67C174.762 177.605 174.586 177.483 174.437 177.305L174.337 177.185C174.324 177.17 174.318 177.154 174.32 177.137C174.322 177.115 174.331 177.097 174.346 177.084L174.874 176.641C174.89 176.628 174.907 176.624 174.927 176.628C174.947 176.627 174.963 176.634 174.976 176.649L175.049 176.737C175.139 176.844 175.255 176.901 175.396 176.908C175.535 176.911 175.672 176.857 175.807 176.743C175.926 176.643 175.991 176.537 176.001 176.424C176.014 176.309 175.98 176.203 175.901 176.109C175.841 176.038 175.771 175.995 175.69 175.979C175.607 175.961 175.51 175.961 175.401 175.98C175.292 175.993 175.13 176.024 174.916 176.073C174.655 176.136 174.432 176.176 174.249 176.194C174.066 176.212 173.88 176.193 173.692 176.137C173.504 176.081 173.335 175.964 173.186 175.786C173.037 175.608 172.948 175.419 172.921 175.217C172.893 175.011 172.927 174.808 173.021 174.609C173.112 174.407 173.256 174.223 173.452 174.059C173.657 173.886 173.873 173.773 174.099 173.719C174.323 173.662 174.538 173.667 174.746 173.733C174.953 173.8 175.133 173.925 175.288 174.109L175.365 174.201C175.378 174.216 175.383 174.235 175.381 174.257C175.38 174.274 175.371 174.289 175.356 174.302L174.827 174.745C174.812 174.758 174.794 174.765 174.774 174.766C174.755 174.762 174.739 174.752 174.726 174.737L174.656 174.654C174.564 174.544 174.448 174.484 174.31 174.475C174.172 174.465 174.037 174.516 173.905 174.626C173.795 174.719 173.732 174.821 173.716 174.934C173.701 175.04 173.736 175.144 173.821 175.245C173.88 175.316 173.95 175.361 174.031 175.383C174.111 175.404 174.21 175.407 174.328 175.392C174.443 175.373 174.611 175.337 174.831 175.282L174.974 175.257C175.234 175.206 175.444 175.176 175.604 175.167C175.764 175.153 175.924 175.172 176.084 175.226C176.244 175.28 176.39 175.385 176.521 175.541C176.755 175.82 176.846 176.122 176.795 176.447C176.744 176.766 176.563 177.057 176.25 177.319Z" fill="#B1B4C5"/>
</g>
<g clip-path="url(#clip2_0_120)">
<rect x="197.416" y="189.498" width="78.517" height="2.45977" rx="1.22989" transform="rotate(-110 197.416 189.498)" fill="#B1B4C5"/>
<path fill-rule="evenodd" clip-rule="evenodd" d="M168.161 123.446C167.587 123.184 167.342 122.5 167.618 121.933L170.888 115.221C171.155 114.673 171.811 114.438 172.366 114.692C172.939 114.954 173.184 115.638 172.908 116.205L169.639 122.917C169.371 123.465 168.715 123.7 168.161 123.446Z" fill="#B1B4C5"/>
<path fill-rule="evenodd" clip-rule="evenodd" d="M179.68 119.254C179.418 119.805 178.765 120.047 178.208 119.798L171.389 116.758C170.813 116.501 170.561 115.82 170.832 115.25C171.093 114.699 171.747 114.457 172.304 114.706L179.123 117.746C179.699 118.003 179.951 118.684 179.68 119.254Z" fill="#B1B4C5"/>
<path d="M181.126 157.468C181.483 157.338 181.798 157.356 182.071 157.52C182.338 157.682 182.539 157.946 182.671 158.31L183.131 159.573C183.138 159.592 183.138 159.611 183.133 159.63C183.122 159.647 183.107 159.659 183.088 159.666L179.277 161.053C179.258 161.06 179.241 161.06 179.225 161.052C179.205 161.043 179.191 161.029 179.184 161.01L178.755 159.832C178.609 159.429 178.586 159.085 178.685 158.797C178.781 158.511 179.012 158.302 179.376 158.169C179.748 158.033 180.07 158.08 180.34 158.31C180.359 158.324 180.371 158.322 180.376 158.303C180.444 157.904 180.694 157.626 181.126 157.468ZM179.591 160.006C179.598 160.025 179.611 160.031 179.63 160.024L180.515 159.702C180.534 159.695 180.54 159.682 180.533 159.663L180.377 159.235C180.322 159.085 180.238 158.981 180.124 158.925C180.01 158.868 179.879 158.867 179.733 158.92C179.582 158.975 179.482 159.061 179.43 159.177C179.378 159.29 179.379 159.423 179.436 159.578L179.591 160.006ZM181.996 158.595C181.941 158.444 181.855 158.344 181.739 158.292C181.617 158.239 181.476 158.241 181.314 158.3C181.152 158.359 181.042 158.448 180.983 158.567C180.919 158.684 180.915 158.818 180.97 158.968L181.142 159.442C181.149 159.461 181.162 159.467 181.18 159.46L182.15 159.107C182.169 159.1 182.175 159.087 182.168 159.068L181.996 158.595ZM177.833 155.385C177.852 155.378 177.871 155.38 177.892 155.389C177.907 155.396 177.918 155.409 177.925 155.428L178.475 156.939C178.482 156.958 178.495 156.964 178.514 156.957L179.393 156.637C179.412 156.63 179.418 156.617 179.411 156.599L179.068 155.657C179.062 155.638 179.064 155.62 179.075 155.604C179.08 155.585 179.093 155.572 179.112 155.565L179.658 155.366C179.677 155.359 179.697 155.36 179.717 155.37C179.733 155.377 179.744 155.39 179.751 155.409L180.093 156.35C180.1 156.369 180.113 156.375 180.132 156.368L181.04 156.038C181.058 156.031 181.064 156.018 181.058 155.999L180.508 154.488C180.501 154.47 180.503 154.452 180.514 154.435C180.52 154.416 180.532 154.403 180.551 154.396L181.097 154.197C181.116 154.19 181.136 154.192 181.156 154.201C181.172 154.208 181.183 154.221 181.19 154.24L182.015 156.507C182.022 156.525 182.022 156.544 182.016 156.563C182.005 156.58 181.99 156.592 181.972 156.599L178.16 157.986C178.142 157.993 178.124 157.993 178.109 157.986C178.089 157.976 178.075 157.962 178.068 157.943L177.243 155.677C177.236 155.658 177.238 155.64 177.249 155.623C177.255 155.604 177.267 155.591 177.286 155.584L177.833 155.385ZM180.216 151.564C180.231 151.606 180.222 151.639 180.188 151.664L179.683 151.995C179.669 152.004 179.665 152.016 179.671 152.031L180.054 153.085C180.06 153.1 180.071 153.107 180.087 153.105L180.687 153.034C180.729 153.032 180.756 153.049 180.77 153.087L181.018 153.769C181.036 153.818 181.019 153.845 180.966 153.852L176.779 154.226C176.737 154.229 176.709 154.209 176.694 154.168L176.396 153.35C176.381 153.309 176.391 153.276 176.424 153.251L179.872 150.847L179.892 150.833C179.926 150.821 179.951 150.835 179.966 150.877L180.216 151.564ZM179.361 153.197C179.374 153.197 179.382 153.192 179.387 153.181C179.388 153.173 179.387 153.164 179.384 153.157L179.114 152.413C179.111 152.405 179.106 152.398 179.1 152.392C179.089 152.387 179.079 152.389 179.069 152.397L177.576 153.381C177.562 153.39 177.557 153.398 177.56 153.406C177.562 153.414 177.572 153.416 177.588 153.415L179.361 153.197ZM175.102 149.793C175.095 149.775 175.097 149.757 175.108 149.74C175.114 149.721 175.126 149.708 175.145 149.701L175.697 149.5C175.716 149.493 175.736 149.494 175.756 149.504C175.772 149.511 175.783 149.524 175.79 149.543L176.102 150.4C176.108 150.419 176.121 150.425 176.14 150.418L179.303 149.267C179.322 149.26 179.341 149.261 179.362 149.271C179.377 149.278 179.388 149.291 179.395 149.31L179.635 149.969C179.642 149.988 179.643 150.007 179.637 150.026C179.626 150.043 179.611 150.055 179.592 150.062L176.429 151.213C176.411 151.22 176.405 151.233 176.411 151.251L176.713 152.08C176.72 152.099 176.72 152.118 176.715 152.137C176.704 152.154 176.689 152.166 176.67 152.172L176.118 152.374C176.099 152.38 176.082 152.38 176.066 152.373C176.046 152.363 176.032 152.349 176.025 152.33L175.102 149.793ZM178.481 146.658C178.576 146.917 178.613 147.161 178.594 147.389C178.571 147.619 178.497 147.818 178.371 147.988C178.24 148.154 178.066 148.277 177.848 148.357L177.701 148.41C177.683 148.417 177.666 148.417 177.65 148.41C177.63 148.4 177.616 148.386 177.609 148.367L177.373 147.719C177.366 147.7 177.368 147.682 177.379 147.665C177.385 147.646 177.397 147.633 177.416 147.626L177.523 147.587C177.655 147.54 177.748 147.45 177.803 147.32C177.854 147.191 177.849 147.043 177.789 146.878C177.735 146.731 177.657 146.634 177.555 146.586C177.451 146.535 177.341 146.53 177.224 146.573C177.138 146.604 177.073 146.655 177.031 146.726C176.985 146.798 176.952 146.889 176.932 146.998C176.907 147.105 176.881 147.268 176.854 147.486C176.824 147.753 176.785 147.975 176.74 148.154C176.694 148.332 176.613 148.5 176.495 148.658C176.378 148.815 176.211 148.934 175.993 149.013C175.775 149.092 175.566 149.111 175.368 149.068C175.164 149.023 174.985 148.922 174.83 148.766C174.671 148.611 174.548 148.413 174.461 148.172C174.369 147.92 174.336 147.679 174.363 147.448C174.386 147.218 174.464 147.017 174.597 146.846C174.73 146.674 174.91 146.547 175.135 146.464L175.248 146.423C175.267 146.417 175.286 146.418 175.307 146.428C175.322 146.435 175.333 146.448 175.34 146.466L175.576 147.115C175.583 147.134 175.584 147.153 175.578 147.172C175.567 147.189 175.552 147.2 175.533 147.207L175.432 147.244C175.296 147.293 175.201 147.381 175.145 147.508C175.089 147.635 175.09 147.779 175.149 147.941C175.198 148.076 175.273 148.17 175.373 148.223C175.468 148.274 175.578 148.276 175.702 148.231C175.788 148.2 175.855 148.15 175.903 148.082C175.95 148.013 175.987 147.921 176.013 147.805C176.035 147.691 176.058 147.521 176.082 147.295L176.107 147.152C176.148 146.89 176.191 146.682 176.238 146.529C176.279 146.374 176.352 146.23 176.458 146.098C176.563 145.966 176.711 145.865 176.903 145.796C177.245 145.671 177.56 145.688 177.848 145.848C178.13 146.004 178.342 146.274 178.481 146.658Z" fill="#B1B4C5"/>
</g>
<g clip-path="url(#clip3_0_120)">
<rect x="140.95" y="114.313" width="78.517" height="2.45977" rx="1.22989" transform="rotate(110 140.95 114.313)" fill="#B1B4C5"/>
<path fill-rule="evenodd" clip-rule="evenodd" d="M120.903 183.716C121.173 184.286 120.922 184.967 120.345 185.224L113.527 188.264C112.97 188.512 112.316 188.271 112.054 187.72C111.783 187.149 112.035 186.468 112.612 186.211L119.43 183.171C119.987 182.923 120.641 183.165 120.903 183.716Z" fill="#B1B4C5"/>
<path fill-rule="evenodd" clip-rule="evenodd" d="M109.383 179.523C109.938 179.269 110.594 179.504 110.861 180.053L114.131 186.764C114.407 187.331 114.162 188.015 113.588 188.278C113.033 188.532 112.377 188.297 112.11 187.748L108.841 181.037C108.564 180.469 108.809 179.786 109.383 179.523Z" fill="#B1B4C5"/>
<path d="M132.84 149.319C132.483 149.189 132.253 148.973 132.15 148.672C132.049 148.376 132.065 148.045 132.198 147.681L132.657 146.418C132.664 146.399 132.676 146.384 132.693 146.373C132.712 146.367 132.731 146.368 132.75 146.375L136.561 147.762C136.58 147.769 136.593 147.78 136.6 147.795C136.61 147.816 136.611 147.835 136.604 147.854L136.175 149.033C136.029 149.435 135.825 149.714 135.564 149.87C135.307 150.027 134.996 150.04 134.631 149.907C134.259 149.772 134.043 149.529 133.983 149.18C133.978 149.157 133.968 149.151 133.951 149.162C133.643 149.424 133.272 149.476 132.84 149.319ZM135.647 148.361C135.654 148.343 135.648 148.33 135.629 148.323L134.744 148.001C134.725 147.994 134.712 148 134.705 148.019L134.549 148.447C134.495 148.598 134.493 148.731 134.544 148.848C134.595 148.964 134.694 149.049 134.841 149.102C134.991 149.157 135.123 149.156 135.238 149.1C135.35 149.047 135.435 148.944 135.491 148.79L135.647 148.361ZM132.898 147.897C132.843 148.048 132.844 148.18 132.9 148.294C132.959 148.413 133.069 148.502 133.231 148.561C133.393 148.62 133.534 148.623 133.656 148.569C133.78 148.52 133.869 148.421 133.924 148.271L134.096 147.797C134.103 147.778 134.097 147.765 134.079 147.759L133.109 147.406C133.09 147.399 133.077 147.405 133.07 147.424L132.898 147.897ZM134.024 153.032C134.005 153.025 133.991 153.011 133.981 152.991C133.974 152.975 133.974 152.958 133.981 152.939L134.531 151.428C134.538 151.409 134.532 151.397 134.513 151.39L133.633 151.07C133.614 151.063 133.602 151.069 133.595 151.088L133.252 152.029C133.245 152.048 133.232 152.06 133.213 152.066C133.196 152.077 133.179 152.079 133.16 152.072L132.613 151.873C132.594 151.866 132.58 151.853 132.57 151.832C132.563 151.817 132.563 151.8 132.57 151.781L132.913 150.839C132.919 150.82 132.913 150.808 132.895 150.801L131.987 150.47C131.968 150.464 131.955 150.47 131.948 150.488L131.398 151.999C131.392 152.018 131.379 152.03 131.359 152.036C131.343 152.047 131.325 152.049 131.306 152.042L130.759 151.843C130.74 151.837 130.726 151.823 130.717 151.802C130.71 151.787 130.709 151.77 130.716 151.751L131.541 149.485C131.548 149.466 131.56 149.451 131.577 149.44C131.596 149.434 131.615 149.435 131.633 149.442L135.445 150.829C135.464 150.836 135.477 150.847 135.484 150.862C135.493 150.883 135.495 150.902 135.488 150.921L134.663 153.188C134.656 153.206 134.643 153.219 134.624 153.224C134.607 153.235 134.589 153.237 134.571 153.231L134.024 153.032ZM129.742 154.427C129.757 154.385 129.786 154.366 129.827 154.368L130.427 154.44C130.444 154.441 130.455 154.435 130.46 154.42L130.844 153.365C130.849 153.35 130.845 153.338 130.832 153.329L130.326 152.998C130.293 152.973 130.283 152.942 130.296 152.904L130.545 152.222C130.563 152.173 130.594 152.163 130.639 152.192L134.086 154.597C134.12 154.622 134.129 154.655 134.114 154.696L133.816 155.514C133.801 155.555 133.773 155.574 133.731 155.572L129.545 155.198L129.52 155.195C129.486 155.183 129.477 155.156 129.492 155.115L129.742 154.427ZM131.447 153.725C131.437 153.718 131.427 153.716 131.417 153.721C131.41 153.727 131.406 153.734 131.403 153.741L131.132 154.486C131.129 154.493 131.128 154.501 131.129 154.51C131.134 154.52 131.143 154.526 131.156 154.526L132.932 154.732C132.949 154.734 132.958 154.731 132.961 154.723C132.964 154.716 132.958 154.708 132.945 154.698L131.447 153.725ZM132.522 159.071C132.515 159.09 132.502 159.102 132.483 159.108C132.466 159.119 132.448 159.121 132.429 159.114L131.877 158.913C131.858 158.906 131.844 158.892 131.834 158.872C131.827 158.856 131.827 158.839 131.834 158.82L132.146 157.963C132.153 157.945 132.147 157.932 132.128 157.925L128.965 156.774C128.946 156.767 128.932 156.753 128.922 156.733C128.915 156.717 128.915 156.7 128.922 156.681L129.162 156.022C129.169 156.003 129.18 155.988 129.197 155.977C129.216 155.971 129.235 155.972 129.254 155.979L132.417 157.13C132.436 157.137 132.449 157.131 132.456 157.112L132.757 156.283C132.764 156.264 132.776 156.25 132.793 156.239C132.812 156.233 132.831 156.233 132.85 156.24L133.402 156.441C133.421 156.448 133.434 156.459 133.441 156.475C133.451 156.495 133.452 156.515 133.445 156.534L132.522 159.071ZM127.917 159.3C128.012 159.041 128.14 158.83 128.301 158.668C128.466 158.506 128.651 158.401 128.856 158.352C129.064 158.309 129.276 158.327 129.494 158.406L129.641 158.459C129.66 158.466 129.673 158.477 129.68 158.493C129.69 158.513 129.691 158.533 129.684 158.552L129.448 159.2C129.441 159.219 129.428 159.231 129.409 159.237C129.392 159.248 129.375 159.25 129.356 159.243L129.249 159.204C129.117 159.156 128.988 159.165 128.863 159.23C128.741 159.296 128.65 159.412 128.589 159.577C128.536 159.724 128.533 159.848 128.581 159.951C128.627 160.057 128.709 160.131 128.825 160.174C128.912 160.205 128.994 160.207 129.072 160.18C129.154 160.155 129.237 160.107 129.323 160.035C129.411 159.97 129.535 159.862 129.696 159.712C129.891 159.527 130.063 159.381 130.213 159.274C130.363 159.167 130.533 159.09 130.724 159.045C130.915 159 131.12 159.017 131.338 159.096C131.556 159.175 131.727 159.295 131.852 159.455C131.979 159.621 132.051 159.813 132.069 160.033C132.091 160.253 132.058 160.484 131.971 160.725C131.879 160.977 131.749 161.182 131.58 161.342C131.415 161.504 131.226 161.607 131.013 161.653C130.801 161.699 130.582 161.681 130.356 161.599L130.243 161.558C130.225 161.551 130.211 161.538 130.201 161.517C130.194 161.502 130.194 161.485 130.2 161.466L130.436 160.818C130.443 160.799 130.455 160.784 130.472 160.773C130.491 160.767 130.51 160.768 130.529 160.775L130.63 160.811C130.766 160.861 130.895 160.855 131.02 160.794C131.144 160.732 131.236 160.621 131.295 160.459C131.344 160.324 131.347 160.204 131.305 160.099C131.264 159.999 131.182 159.927 131.058 159.882C130.972 159.85 130.888 159.845 130.808 159.867C130.728 159.889 130.64 159.936 130.546 160.008C130.455 160.082 130.328 160.197 130.164 160.355L130.054 160.448C129.854 160.623 129.687 160.753 129.553 160.841C129.422 160.933 129.273 160.996 129.108 161.03C128.942 161.063 128.764 161.045 128.572 160.975C128.23 160.851 128 160.635 127.882 160.328C127.766 160.026 127.778 159.684 127.917 159.3Z" fill="#B1B4C5"/>
</g>
<path d="M237.599 56.866C237.599 57.5627 237.372 58.0943 236.917 58.461C236.47 58.8203 235.89 59 235.179 59H232.715C232.678 59 232.645 58.989 232.616 58.967C232.594 58.9377 232.583 58.9047 232.583 58.868V51.432C232.583 51.3953 232.594 51.366 232.616 51.344C232.645 51.3147 232.678 51.3 232.715 51.3H235.014C235.799 51.3 236.407 51.476 236.84 51.828C237.273 52.1727 237.489 52.7007 237.489 53.412C237.489 54.138 237.207 54.6623 236.642 54.985C236.605 55.007 236.602 55.029 236.631 55.051C237.276 55.4177 237.599 56.0227 237.599 56.866ZM234.189 52.631C234.152 52.631 234.134 52.6493 234.134 52.686V54.413C234.134 54.4497 234.152 54.468 234.189 54.468H235.025C235.318 54.468 235.549 54.3873 235.718 54.226C235.887 54.0647 235.971 53.841 235.971 53.555C235.971 53.2617 235.887 53.0343 235.718 52.873C235.557 52.7117 235.326 52.631 235.025 52.631H234.189ZM235.113 57.658C235.406 57.658 235.634 57.5737 235.795 57.405C235.964 57.229 236.048 56.9833 236.048 56.668C236.048 56.3527 235.964 56.107 235.795 55.931C235.634 55.7477 235.406 55.656 235.113 55.656H234.189C234.152 55.656 234.134 55.6743 234.134 55.711V57.603C234.134 57.6397 234.152 57.658 234.189 57.658H235.113ZM243.252 52.499C243.252 52.5357 243.238 52.5687 243.208 52.598C243.186 52.62 243.157 52.631 243.12 52.631H240.172C240.136 52.631 240.117 52.6493 240.117 52.686V54.402C240.117 54.4387 240.136 54.457 240.172 54.457H242.009C242.046 54.457 242.075 54.4717 242.097 54.501C242.127 54.523 242.141 54.5523 242.141 54.589V55.656C242.141 55.6927 242.127 55.7257 242.097 55.755C242.075 55.777 242.046 55.788 242.009 55.788H240.172C240.136 55.788 240.117 55.8063 240.117 55.843V57.614C240.117 57.6507 240.136 57.669 240.172 57.669H243.12C243.157 57.669 243.186 57.6837 243.208 57.713C243.238 57.735 243.252 57.7643 243.252 57.801V58.868C243.252 58.9047 243.238 58.9377 243.208 58.967C243.186 58.989 243.157 59 243.12 59H238.698C238.662 59 238.629 58.989 238.599 58.967C238.577 58.9377 238.566 58.9047 238.566 58.868V51.432C238.566 51.3953 238.577 51.366 238.599 51.344C238.629 51.3147 238.662 51.3 238.698 51.3H243.12C243.157 51.3 243.186 51.3147 243.208 51.344C243.238 51.366 243.252 51.3953 243.252 51.432V52.499ZM248.341 59C248.26 59 248.209 58.9633 248.187 58.89L247.934 57.812C247.926 57.7827 247.908 57.768 247.879 57.768H245.822C245.792 57.768 245.774 57.7827 245.767 57.812L245.514 58.89C245.492 58.9633 245.444 59 245.371 59H244.04C243.944 59 243.908 58.9523 243.93 58.857L245.91 51.41C245.932 51.3367 245.983 51.3 246.064 51.3H247.659C247.739 51.3 247.791 51.3367 247.813 51.41L249.793 58.857L249.804 58.901C249.804 58.967 249.763 59 249.683 59H248.341ZM246.064 56.503C246.056 56.525 246.06 56.5433 246.075 56.558C246.089 56.5653 246.104 56.569 246.119 56.569H247.571C247.585 56.569 247.6 56.5653 247.615 56.558C247.629 56.5433 247.633 56.525 247.626 56.503L246.867 53.313C246.859 53.2837 246.848 53.269 246.834 53.269C246.819 53.269 246.808 53.2837 246.801 53.313L246.064 56.503ZM254.598 51.3C254.635 51.3 254.664 51.3147 254.686 51.344C254.716 51.366 254.73 51.3953 254.73 51.432V52.51C254.73 52.5467 254.716 52.5797 254.686 52.609C254.664 52.631 254.635 52.642 254.598 52.642H252.926C252.89 52.642 252.871 52.6603 252.871 52.697V58.868C252.871 58.9047 252.857 58.9377 252.827 58.967C252.805 58.989 252.776 59 252.739 59H251.452C251.416 59 251.383 58.989 251.353 58.967C251.331 58.9377 251.32 58.9047 251.32 58.868V52.697C251.32 52.6603 251.302 52.642 251.265 52.642H249.648C249.612 52.642 249.579 52.631 249.549 52.609C249.527 52.5797 249.516 52.5467 249.516 52.51V51.432C249.516 51.3953 249.527 51.366 249.549 51.344C249.579 51.3147 249.612 51.3 249.648 51.3H254.598ZM257.881 59.088C257.375 59.088 256.932 59 256.55 58.824C256.169 58.6407 255.872 58.3877 255.659 58.065C255.454 57.735 255.351 57.3573 255.351 56.932V56.646C255.351 56.6093 255.362 56.58 255.384 56.558C255.414 56.5287 255.447 56.514 255.483 56.514H256.748C256.785 56.514 256.814 56.5287 256.836 56.558C256.866 56.58 256.88 56.6093 256.88 56.646V56.855C256.88 57.1117 256.976 57.328 257.166 57.504C257.357 57.6727 257.614 57.757 257.936 57.757C258.222 57.757 258.439 57.6837 258.585 57.537C258.739 57.3903 258.816 57.2033 258.816 56.976C258.816 56.8073 258.769 56.6643 258.673 56.547C258.578 56.4223 258.442 56.3087 258.266 56.206C258.098 56.096 257.834 55.9493 257.474 55.766C257.034 55.546 256.675 55.3407 256.396 55.15C256.118 54.9593 255.879 54.7137 255.681 54.413C255.483 54.1123 255.384 53.7493 255.384 53.324C255.384 52.8987 255.483 52.5283 255.681 52.213C255.887 51.8903 256.173 51.6447 256.539 51.476C256.906 51.3 257.324 51.212 257.793 51.212C258.285 51.212 258.721 51.3073 259.102 51.498C259.484 51.6813 259.781 51.9417 259.993 52.279C260.206 52.6163 260.312 53.005 260.312 53.445V53.665C260.312 53.7017 260.298 53.7347 260.268 53.764C260.246 53.786 260.217 53.797 260.18 53.797H258.915C258.879 53.797 258.846 53.786 258.816 53.764C258.794 53.7347 258.783 53.7017 258.783 53.665V53.467C258.783 53.203 258.692 52.983 258.508 52.807C258.325 52.631 258.076 52.543 257.76 52.543C257.496 52.543 257.287 52.6127 257.133 52.752C256.987 52.884 256.913 53.071 256.913 53.313C256.913 53.4817 256.957 53.6283 257.045 53.753C257.133 53.8777 257.269 53.9987 257.452 54.116C257.636 54.226 257.914 54.3727 258.288 54.556L258.519 54.688C258.945 54.9227 259.275 55.128 259.509 55.304C259.751 55.4727 259.953 55.689 260.114 55.953C260.276 56.217 260.356 56.536 260.356 56.91C260.356 57.5773 260.129 58.109 259.674 58.505C259.227 58.8937 258.629 59.088 257.881 59.088Z" fill="#B1B4C5"/>
<path d="M56.599 56.866C56.599 57.5627 56.3717 58.0943 55.917 58.461C55.4697 58.8203 54.8903 59 54.179 59H51.715C51.6783 59 51.6453 58.989 51.616 58.967C51.594 58.9377 51.583 58.9047 51.583 58.868V51.432C51.583 51.3953 51.594 51.366 51.616 51.344C51.6453 51.3147 51.6783 51.3 51.715 51.3H54.014C54.7987 51.3 55.4073 51.476 55.84 51.828C56.2727 52.1727 56.489 52.7007 56.489 53.412C56.489 54.138 56.2067 54.6623 55.642 54.985C55.6053 55.007 55.6017 55.029 55.631 55.051C56.2763 55.4177 56.599 56.0227 56.599 56.866ZM53.189 52.631C53.1523 52.631 53.134 52.6493 53.134 52.686V54.413C53.134 54.4497 53.1523 54.468 53.189 54.468H54.025C54.3183 54.468 54.5493 54.3873 54.718 54.226C54.8867 54.0647 54.971 53.841 54.971 53.555C54.971 53.2617 54.8867 53.0343 54.718 52.873C54.5567 52.7117 54.3257 52.631 54.025 52.631H53.189ZM54.113 57.658C54.4063 57.658 54.6337 57.5737 54.795 57.405C54.9637 57.229 55.048 56.9833 55.048 56.668C55.048 56.3527 54.9637 56.107 54.795 55.931C54.6337 55.7477 54.4063 55.656 54.113 55.656H53.189C53.1523 55.656 53.134 55.6743 53.134 55.711V57.603C53.134 57.6397 53.1523 57.658 53.189 57.658H54.113ZM62.2524 52.499C62.2524 52.5357 62.2377 52.5687 62.2084 52.598C62.1864 52.62 62.1571 52.631 62.1204 52.631H59.1724C59.1357 52.631 59.1174 52.6493 59.1174 52.686V54.402C59.1174 54.4387 59.1357 54.457 59.1724 54.457H61.0094C61.0461 54.457 61.0754 54.4717 61.0974 54.501C61.1267 54.523 61.1414 54.5523 61.1414 54.589V55.656C61.1414 55.6927 61.1267 55.7257 61.0974 55.755C61.0754 55.777 61.0461 55.788 61.0094 55.788H59.1724C59.1357 55.788 59.1174 55.8063 59.1174 55.843V57.614C59.1174 57.6507 59.1357 57.669 59.1724 57.669H62.1204C62.1571 57.669 62.1864 57.6837 62.2084 57.713C62.2377 57.735 62.2524 57.7643 62.2524 57.801V58.868C62.2524 58.9047 62.2377 58.9377 62.2084 58.967C62.1864 58.989 62.1571 59 62.1204 59H57.6984C57.6617 59 57.6287 58.989 57.5994 58.967C57.5774 58.9377 57.5664 58.9047 57.5664 58.868V51.432C57.5664 51.3953 57.5774 51.366 57.5994 51.344C57.6287 51.3147 57.6617 51.3 57.6984 51.3H62.1204C62.1571 51.3 62.1864 51.3147 62.2084 51.344C62.2377 51.366 62.2524 51.3953 62.2524 51.432V52.499ZM67.3405 59C67.2598 59 67.2085 58.9633 67.1865 58.89L66.9335 57.812C66.9262 57.7827 66.9078 57.768 66.8785 57.768H64.8215C64.7922 57.768 64.7738 57.7827 64.7665 57.812L64.5135 58.89C64.4915 58.9633 64.4438 59 64.3705 59H63.0395C62.9442 59 62.9075 58.9523 62.9295 58.857L64.9095 51.41C64.9315 51.3367 64.9828 51.3 65.0635 51.3H66.6585C66.7392 51.3 66.7905 51.3367 66.8125 51.41L68.7925 58.857L68.8035 58.901C68.8035 58.967 68.7632 59 68.6825 59H67.3405ZM65.0635 56.503C65.0562 56.525 65.0598 56.5433 65.0745 56.558C65.0892 56.5653 65.1038 56.569 65.1185 56.569H66.5705C66.5852 56.569 66.5998 56.5653 66.6145 56.558C66.6292 56.5433 66.6328 56.525 66.6255 56.503L65.8665 53.313C65.8592 53.2837 65.8482 53.269 65.8335 53.269C65.8188 53.269 65.8078 53.2837 65.8005 53.313L65.0635 56.503ZM73.5985 51.3C73.6351 51.3 73.6645 51.3147 73.6865 51.344C73.7158 51.366 73.7305 51.3953 73.7305 51.432V52.51C73.7305 52.5467 73.7158 52.5797 73.6865 52.609C73.6645 52.631 73.6351 52.642 73.5985 52.642H71.9265C71.8898 52.642 71.8715 52.6603 71.8715 52.697V58.868C71.8715 58.9047 71.8568 58.9377 71.8275 58.967C71.8055 58.989 71.7761 59 71.7395 59H70.4525C70.4158 59 70.3828 58.989 70.3535 58.967C70.3315 58.9377 70.3205 58.9047 70.3205 58.868V52.697C70.3205 52.6603 70.3021 52.642 70.2655 52.642H68.6485C68.6118 52.642 68.5788 52.631 68.5495 52.609C68.5275 52.5797 68.5165 52.5467 68.5165 52.51V51.432C68.5165 51.3953 68.5275 51.366 68.5495 51.344C68.5788 51.3147 68.6118 51.3 68.6485 51.3H73.5985ZM76.8813 59.088C76.3753 59.088 75.9316 59 75.5503 58.824C75.1689 58.6407 74.8719 58.3877 74.6593 58.065C74.4539 57.735 74.3513 57.3573 74.3513 56.932V56.646C74.3513 56.6093 74.3623 56.58 74.3843 56.558C74.4136 56.5287 74.4466 56.514 74.4833 56.514H75.7483C75.7849 56.514 75.8143 56.5287 75.8363 56.558C75.8656 56.58 75.8803 56.6093 75.8803 56.646V56.855C75.8803 57.1117 75.9756 57.328 76.1663 57.504C76.3569 57.6727 76.6136 57.757 76.9363 57.757C77.2223 57.757 77.4386 57.6837 77.5853 57.537C77.7393 57.3903 77.8163 57.2033 77.8163 56.976C77.8163 56.8073 77.7686 56.6643 77.6733 56.547C77.5779 56.4223 77.4423 56.3087 77.2663 56.206C77.0976 56.096 76.8336 55.9493 76.4743 55.766C76.0343 55.546 75.6749 55.3407 75.3963 55.15C75.1176 54.9593 74.8793 54.7137 74.6813 54.413C74.4833 54.1123 74.3843 53.7493 74.3843 53.324C74.3843 52.8987 74.4833 52.5283 74.6813 52.213C74.8866 51.8903 75.1726 51.6447 75.5393 51.476C75.9059 51.3 76.3239 51.212 76.7933 51.212C77.2846 51.212 77.7209 51.3073 78.1023 51.498C78.4836 51.6813 78.7806 51.9417 78.9933 52.279C79.2059 52.6163 79.3123 53.005 79.3123 53.445V53.665C79.3123 53.7017 79.2976 53.7347 79.2683 53.764C79.2463 53.786 79.2169 53.797 79.1803 53.797H77.9153C77.8786 53.797 77.8456 53.786 77.8163 53.764C77.7943 53.7347 77.7833 53.7017 77.7833 53.665V53.467C77.7833 53.203 77.6916 52.983 77.5083 52.807C77.3249 52.631 77.0756 52.543 76.7603 52.543C76.4963 52.543 76.2873 52.6127 76.1333 52.752C75.9866 52.884 75.9133 53.071 75.9133 53.313C75.9133 53.4817 75.9573 53.6283 76.0453 53.753C76.1333 53.8777 76.2689 53.9987 76.4523 54.116C76.6356 54.226 76.9143 54.3727 77.2883 54.556L77.5193 54.688C77.9446 54.9227 78.2746 55.128 78.5093 55.304C78.7513 55.4727 78.9529 55.689 79.1143 55.953C79.2756 56.217 79.3563 56.536 79.3563 56.91C79.3563 57.5773 79.1289 58.109 78.6743 58.505C78.2269 58.8937 77.6293 59.088 76.8813 59.088Z" fill="#B1B4C5"/>
<path d="M286.599 205.866C286.599 206.563 286.372 207.094 285.917 207.461C285.47 207.82 284.89 208 284.179 208H281.715C281.678 208 281.645 207.989 281.616 207.967C281.594 207.938 281.583 207.905 281.583 207.868V200.432C281.583 200.395 281.594 200.366 281.616 200.344C281.645 200.315 281.678 200.3 281.715 200.3H284.014C284.799 200.3 285.407 200.476 285.84 200.828C286.273 201.173 286.489 201.701 286.489 202.412C286.489 203.138 286.207 203.662 285.642 203.985C285.605 204.007 285.602 204.029 285.631 204.051C286.276 204.418 286.599 205.023 286.599 205.866ZM283.189 201.631C283.152 201.631 283.134 201.649 283.134 201.686V203.413C283.134 203.45 283.152 203.468 283.189 203.468H284.025C284.318 203.468 284.549 203.387 284.718 203.226C284.887 203.065 284.971 202.841 284.971 202.555C284.971 202.262 284.887 202.034 284.718 201.873C284.557 201.712 284.326 201.631 284.025 201.631H283.189ZM284.113 206.658C284.406 206.658 284.634 206.574 284.795 206.405C284.964 206.229 285.048 205.983 285.048 205.668C285.048 205.353 284.964 205.107 284.795 204.931C284.634 204.748 284.406 204.656 284.113 204.656H283.189C283.152 204.656 283.134 204.674 283.134 204.711V206.603C283.134 206.64 283.152 206.658 283.189 206.658H284.113ZM292.252 201.499C292.252 201.536 292.238 201.569 292.208 201.598C292.186 201.62 292.157 201.631 292.12 201.631H289.172C289.136 201.631 289.117 201.649 289.117 201.686V203.402C289.117 203.439 289.136 203.457 289.172 203.457H291.009C291.046 203.457 291.075 203.472 291.097 203.501C291.127 203.523 291.141 203.552 291.141 203.589V204.656C291.141 204.693 291.127 204.726 291.097 204.755C291.075 204.777 291.046 204.788 291.009 204.788H289.172C289.136 204.788 289.117 204.806 289.117 204.843V206.614C289.117 206.651 289.136 206.669 289.172 206.669H292.12C292.157 206.669 292.186 206.684 292.208 206.713C292.238 206.735 292.252 206.764 292.252 206.801V207.868C292.252 207.905 292.238 207.938 292.208 207.967C292.186 207.989 292.157 208 292.12 208H287.698C287.662 208 287.629 207.989 287.599 207.967C287.577 207.938 287.566 207.905 287.566 207.868V200.432C287.566 200.395 287.577 200.366 287.599 200.344C287.629 200.315 287.662 200.3 287.698 200.3H292.12C292.157 200.3 292.186 200.315 292.208 200.344C292.238 200.366 292.252 200.395 292.252 200.432V201.499ZM297.341 208C297.26 208 297.209 207.963 297.187 207.89L296.934 206.812C296.926 206.783 296.908 206.768 296.879 206.768H294.822C294.792 206.768 294.774 206.783 294.767 206.812L294.514 207.89C294.492 207.963 294.444 208 294.371 208H293.04C292.944 208 292.908 207.952 292.93 207.857L294.91 200.41C294.932 200.337 294.983 200.3 295.064 200.3H296.659C296.739 200.3 296.791 200.337 296.813 200.41L298.793 207.857L298.804 207.901C298.804 207.967 298.763 208 298.683 208H297.341ZM295.064 205.503C295.056 205.525 295.06 205.543 295.075 205.558C295.089 205.565 295.104 205.569 295.119 205.569H296.571C296.585 205.569 296.6 205.565 296.615 205.558C296.629 205.543 296.633 205.525 296.626 205.503L295.867 202.313C295.859 202.284 295.848 202.269 295.834 202.269C295.819 202.269 295.808 202.284 295.801 202.313L295.064 205.503ZM303.598 200.3C303.635 200.3 303.664 200.315 303.686 200.344C303.716 200.366 303.73 200.395 303.73 200.432V201.51C303.73 201.547 303.716 201.58 303.686 201.609C303.664 201.631 303.635 201.642 303.598 201.642H301.926C301.89 201.642 301.871 201.66 301.871 201.697V207.868C301.871 207.905 301.857 207.938 301.827 207.967C301.805 207.989 301.776 208 301.739 208H300.452C300.416 208 300.383 207.989 300.353 207.967C300.331 207.938 300.32 207.905 300.32 207.868V201.697C300.32 201.66 300.302 201.642 300.265 201.642H298.648C298.612 201.642 298.579 201.631 298.549 201.609C298.527 201.58 298.516 201.547 298.516 201.51V200.432C298.516 200.395 298.527 200.366 298.549 200.344C298.579 200.315 298.612 200.3 298.648 200.3H303.598ZM306.881 208.088C306.375 208.088 305.932 208 305.55 207.824C305.169 207.641 304.872 207.388 304.659 207.065C304.454 206.735 304.351 206.357 304.351 205.932V205.646C304.351 205.609 304.362 205.58 304.384 205.558C304.414 205.529 304.447 205.514 304.483 205.514H305.748C305.785 205.514 305.814 205.529 305.836 205.558C305.866 205.58 305.88 205.609 305.88 205.646V205.855C305.88 206.112 305.976 206.328 306.166 206.504C306.357 206.673 306.614 206.757 306.936 206.757C307.222 206.757 307.439 206.684 307.585 206.537C307.739 206.39 307.816 206.203 307.816 205.976C307.816 205.807 307.769 205.664 307.673 205.547C307.578 205.422 307.442 205.309 307.266 205.206C307.098 205.096 306.834 204.949 306.474 204.766C306.034 204.546 305.675 204.341 305.396 204.15C305.118 203.959 304.879 203.714 304.681 203.413C304.483 203.112 304.384 202.749 304.384 202.324C304.384 201.899 304.483 201.528 304.681 201.213C304.887 200.89 305.173 200.645 305.539 200.476C305.906 200.3 306.324 200.212 306.793 200.212C307.285 200.212 307.721 200.307 308.102 200.498C308.484 200.681 308.781 200.942 308.993 201.279C309.206 201.616 309.312 202.005 309.312 202.445V202.665C309.312 202.702 309.298 202.735 309.268 202.764C309.246 202.786 309.217 202.797 309.18 202.797H307.915C307.879 202.797 307.846 202.786 307.816 202.764C307.794 202.735 307.783 202.702 307.783 202.665V202.467C307.783 202.203 307.692 201.983 307.508 201.807C307.325 201.631 307.076 201.543 306.76 201.543C306.496 201.543 306.287 201.613 306.133 201.752C305.987 201.884 305.913 202.071 305.913 202.313C305.913 202.482 305.957 202.628 306.045 202.753C306.133 202.878 306.269 202.999 306.452 203.116C306.636 203.226 306.914 203.373 307.288 203.556L307.519 203.688C307.945 203.923 308.275 204.128 308.509 204.304C308.751 204.473 308.953 204.689 309.114 204.953C309.276 205.217 309.356 205.536 309.356 205.91C309.356 206.577 309.129 207.109 308.674 207.505C308.227 207.894 307.629 208.088 306.881 208.088Z" fill="#B1B4C5"/>
<path d="M6.599 205.866C6.599 206.563 6.37167 207.094 5.917 207.461C5.46967 207.82 4.89033 208 4.179 208H1.715C1.67833 208 1.64533 207.989 1.616 207.967C1.594 207.938 1.583 207.905 1.583 207.868V200.432C1.583 200.395 1.594 200.366 1.616 200.344C1.64533 200.315 1.67833 200.3 1.715 200.3H4.014C4.79867 200.3 5.40733 200.476 5.84 200.828C6.27267 201.173 6.489 201.701 6.489 202.412C6.489 203.138 6.20667 203.662 5.642 203.985C5.60533 204.007 5.60167 204.029 5.631 204.051C6.27633 204.418 6.599 205.023 6.599 205.866ZM3.189 201.631C3.15233 201.631 3.134 201.649 3.134 201.686V203.413C3.134 203.45 3.15233 203.468 3.189 203.468H4.025C4.31833 203.468 4.54933 203.387 4.718 203.226C4.88667 203.065 4.971 202.841 4.971 202.555C4.971 202.262 4.88667 202.034 4.718 201.873C4.55667 201.712 4.32567 201.631 4.025 201.631H3.189ZM4.113 206.658C4.40633 206.658 4.63367 206.574 4.795 206.405C4.96367 206.229 5.048 205.983 5.048 205.668C5.048 205.353 4.96367 205.107 4.795 204.931C4.63367 204.748 4.40633 204.656 4.113 204.656H3.189C3.15233 204.656 3.134 204.674 3.134 204.711V206.603C3.134 206.64 3.15233 206.658 3.189 206.658H4.113ZM12.2524 201.499C12.2524 201.536 12.2377 201.569 12.2084 201.598C12.1864 201.62 12.1571 201.631 12.1204 201.631H9.1724C9.13573 201.631 9.1174 201.649 9.1174 201.686V203.402C9.1174 203.439 9.13573 203.457 9.1724 203.457H11.0094C11.0461 203.457 11.0754 203.472 11.0974 203.501C11.1267 203.523 11.1414 203.552 11.1414 203.589V204.656C11.1414 204.693 11.1267 204.726 11.0974 204.755C11.0754 204.777 11.0461 204.788 11.0094 204.788H9.1724C9.13573 204.788 9.1174 204.806 9.1174 204.843V206.614C9.1174 206.651 9.13573 206.669 9.1724 206.669H12.1204C12.1571 206.669 12.1864 206.684 12.2084 206.713C12.2377 206.735 12.2524 206.764 12.2524 206.801V207.868C12.2524 207.905 12.2377 207.938 12.2084 207.967C12.1864 207.989 12.1571 208 12.1204 208H7.6984C7.66173 208 7.62873 207.989 7.5994 207.967C7.5774 207.938 7.5664 207.905 7.5664 207.868V200.432C7.5664 200.395 7.5774 200.366 7.5994 200.344C7.62873 200.315 7.66173 200.3 7.6984 200.3H12.1204C12.1571 200.3 12.1864 200.315 12.2084 200.344C12.2377 200.366 12.2524 200.395 12.2524 200.432V201.499ZM17.3405 208C17.2598 208 17.2085 207.963 17.1865 207.89L16.9335 206.812C16.9262 206.783 16.9078 206.768 16.8785 206.768H14.8215C14.7922 206.768 14.7738 206.783 14.7665 206.812L14.5135 207.89C14.4915 207.963 14.4438 208 14.3705 208H13.0395C12.9442 208 12.9075 207.952 12.9295 207.857L14.9095 200.41C14.9315 200.337 14.9828 200.3 15.0635 200.3H16.6585C16.7392 200.3 16.7905 200.337 16.8125 200.41L18.7925 207.857L18.8035 207.901C18.8035 207.967 18.7632 208 18.6825 208H17.3405ZM15.0635 205.503C15.0562 205.525 15.0598 205.543 15.0745 205.558C15.0892 205.565 15.1038 205.569 15.1185 205.569H16.5705C16.5852 205.569 16.5998 205.565 16.6145 205.558C16.6292 205.543 16.6328 205.525 16.6255 205.503L15.8665 202.313C15.8592 202.284 15.8482 202.269 15.8335 202.269C15.8188 202.269 15.8078 202.284 15.8005 202.313L15.0635 205.503ZM23.5985 200.3C23.6351 200.3 23.6645 200.315 23.6865 200.344C23.7158 200.366 23.7305 200.395 23.7305 200.432V201.51C23.7305 201.547 23.7158 201.58 23.6865 201.609C23.6645 201.631 23.6351 201.642 23.5985 201.642H21.9265C21.8898 201.642 21.8715 201.66 21.8715 201.697V207.868C21.8715 207.905 21.8568 207.938 21.8275 207.967C21.8055 207.989 21.7761 208 21.7395 208H20.4525C20.4158 208 20.3828 207.989 20.3535 207.967C20.3315 207.938 20.3205 207.905 20.3205 207.868V201.697C20.3205 201.66 20.3021 201.642 20.2655 201.642H18.6485C18.6118 201.642 18.5788 201.631 18.5495 201.609C18.5275 201.58 18.5165 201.547 18.5165 201.51V200.432C18.5165 200.395 18.5275 200.366 18.5495 200.344C18.5788 200.315 18.6118 200.3 18.6485 200.3H23.5985ZM26.8813 208.088C26.3753 208.088 25.9316 208 25.5503 207.824C25.1689 207.641 24.8719 207.388 24.6593 207.065C24.4539 206.735 24.3513 206.357 24.3513 205.932V205.646C24.3513 205.609 24.3623 205.58 24.3843 205.558C24.4136 205.529 24.4466 205.514 24.4833 205.514H25.7483C25.7849 205.514 25.8143 205.529 25.8363 205.558C25.8656 205.58 25.8803 205.609 25.8803 205.646V205.855C25.8803 206.112 25.9756 206.328 26.1663 206.504C26.3569 206.673 26.6136 206.757 26.9363 206.757C27.2223 206.757 27.4386 206.684 27.5853 206.537C27.7393 206.39 27.8163 206.203 27.8163 205.976C27.8163 205.807 27.7686 205.664 27.6733 205.547C27.5779 205.422 27.4423 205.309 27.2663 205.206C27.0976 205.096 26.8336 204.949 26.4743 204.766C26.0343 204.546 25.6749 204.341 25.3963 204.15C25.1176 203.959 24.8793 203.714 24.6813 203.413C24.4833 203.112 24.3843 202.749 24.3843 202.324C24.3843 201.899 24.4833 201.528 24.6813 201.213C24.8866 200.89 25.1726 200.645 25.5393 200.476C25.9059 200.3 26.3239 200.212 26.7933 200.212C27.2846 200.212 27.7209 200.307 28.1023 200.498C28.4836 200.681 28.7806 200.942 28.9933 201.279C29.2059 201.616 29.3123 202.005 29.3123 202.445V202.665C29.3123 202.702 29.2976 202.735 29.2683 202.764C29.2463 202.786 29.2169 202.797 29.1803 202.797H27.9153C27.8786 202.797 27.8456 202.786 27.8163 202.764C27.7943 202.735 27.7833 202.702 27.7833 202.665V202.467C27.7833 202.203 27.6916 201.983 27.5083 201.807C27.3249 201.631 27.0756 201.543 26.7603 201.543C26.4963 201.543 26.2873 201.613 26.1333 201.752C25.9866 201.884 25.9133 202.071 25.9133 202.313C25.9133 202.482 25.9573 202.628 26.0453 202.753C26.1333 202.878 26.2689 202.999 26.4523 203.116C26.6356 203.226 26.9143 203.373 27.2883 203.556L27.5193 203.688C27.9446 203.923 28.2746 204.128 28.5093 204.304C28.7513 204.473 28.9529 204.689 29.1143 204.953C29.2756 205.217 29.3563 205.536 29.3563 205.91C29.3563 206.577 29.1289 207.109 28.6743 207.505C28.2269 207.894 27.6293 208.088 26.8813 208.088Z" fill="#B1B4C5"/>
<path d="M147.599 300.866C147.599 301.563 147.372 302.094 146.917 302.461C146.47 302.82 145.89 303 145.179 303H142.715C142.678 303 142.645 302.989 142.616 302.967C142.594 302.938 142.583 302.905 142.583 302.868V295.432C142.583 295.395 142.594 295.366 142.616 295.344C142.645 295.315 142.678 295.3 142.715 295.3H145.014C145.799 295.3 146.407 295.476 146.84 295.828C147.273 296.173 147.489 296.701 147.489 297.412C147.489 298.138 147.207 298.662 146.642 298.985C146.605 299.007 146.602 299.029 146.631 299.051C147.276 299.418 147.599 300.023 147.599 300.866ZM144.189 296.631C144.152 296.631 144.134 296.649 144.134 296.686V298.413C144.134 298.45 144.152 298.468 144.189 298.468H145.025C145.318 298.468 145.549 298.387 145.718 298.226C145.887 298.065 145.971 297.841 145.971 297.555C145.971 297.262 145.887 297.034 145.718 296.873C145.557 296.712 145.326 296.631 145.025 296.631H144.189ZM145.113 301.658C145.406 301.658 145.634 301.574 145.795 301.405C145.964 301.229 146.048 300.983 146.048 300.668C146.048 300.353 145.964 300.107 145.795 299.931C145.634 299.748 145.406 299.656 145.113 299.656H144.189C144.152 299.656 144.134 299.674 144.134 299.711V301.603C144.134 301.64 144.152 301.658 144.189 301.658H145.113ZM153.252 296.499C153.252 296.536 153.238 296.569 153.208 296.598C153.186 296.62 153.157 296.631 153.12 296.631H150.172C150.136 296.631 150.117 296.649 150.117 296.686V298.402C150.117 298.439 150.136 298.457 150.172 298.457H152.009C152.046 298.457 152.075 298.472 152.097 298.501C152.127 298.523 152.141 298.552 152.141 298.589V299.656C152.141 299.693 152.127 299.726 152.097 299.755C152.075 299.777 152.046 299.788 152.009 299.788H150.172C150.136 299.788 150.117 299.806 150.117 299.843V301.614C150.117 301.651 150.136 301.669 150.172 301.669H153.12C153.157 301.669 153.186 301.684 153.208 301.713C153.238 301.735 153.252 301.764 153.252 301.801V302.868C153.252 302.905 153.238 302.938 153.208 302.967C153.186 302.989 153.157 303 153.12 303H148.698C148.662 303 148.629 302.989 148.599 302.967C148.577 302.938 148.566 302.905 148.566 302.868V295.432C148.566 295.395 148.577 295.366 148.599 295.344C148.629 295.315 148.662 295.3 148.698 295.3H153.12C153.157 295.3 153.186 295.315 153.208 295.344C153.238 295.366 153.252 295.395 153.252 295.432V296.499ZM158.341 303C158.26 303 158.209 302.963 158.187 302.89L157.934 301.812C157.926 301.783 157.908 301.768 157.879 301.768H155.822C155.792 301.768 155.774 301.783 155.767 301.812L155.514 302.89C155.492 302.963 155.444 303 155.371 303H154.04C153.944 303 153.908 302.952 153.93 302.857L155.91 295.41C155.932 295.337 155.983 295.3 156.064 295.3H157.659C157.739 295.3 157.791 295.337 157.813 295.41L159.793 302.857L159.804 302.901C159.804 302.967 159.763 303 159.683 303H158.341ZM156.064 300.503C156.056 300.525 156.06 300.543 156.075 300.558C156.089 300.565 156.104 300.569 156.119 300.569H157.571C157.585 300.569 157.6 300.565 157.615 300.558C157.629 300.543 157.633 300.525 157.626 300.503L156.867 297.313C156.859 297.284 156.848 297.269 156.834 297.269C156.819 297.269 156.808 297.284 156.801 297.313L156.064 300.503ZM164.598 295.3C164.635 295.3 164.664 295.315 164.686 295.344C164.716 295.366 164.73 295.395 164.73 295.432V296.51C164.73 296.547 164.716 296.58 164.686 296.609C164.664 296.631 164.635 296.642 164.598 296.642H162.926C162.89 296.642 162.871 296.66 162.871 296.697V302.868C162.871 302.905 162.857 302.938 162.827 302.967C162.805 302.989 162.776 303 162.739 303H161.452C161.416 303 161.383 302.989 161.353 302.967C161.331 302.938 161.32 302.905 161.32 302.868V296.697C161.32 296.66 161.302 296.642 161.265 296.642H159.648C159.612 296.642 159.579 296.631 159.549 296.609C159.527 296.58 159.516 296.547 159.516 296.51V295.432C159.516 295.395 159.527 295.366 159.549 295.344C159.579 295.315 159.612 295.3 159.648 295.3H164.598ZM167.881 303.088C167.375 303.088 166.932 303 166.55 302.824C166.169 302.641 165.872 302.388 165.659 302.065C165.454 301.735 165.351 301.357 165.351 300.932V300.646C165.351 300.609 165.362 300.58 165.384 300.558C165.414 300.529 165.447 300.514 165.483 300.514H166.748C166.785 300.514 166.814 300.529 166.836 300.558C166.866 300.58 166.88 300.609 166.88 300.646V300.855C166.88 301.112 166.976 301.328 167.166 301.504C167.357 301.673 167.614 301.757 167.936 301.757C168.222 301.757 168.439 301.684 168.585 301.537C168.739 301.39 168.816 301.203 168.816 300.976C168.816 300.807 168.769 300.664 168.673 300.547C168.578 300.422 168.442 300.309 168.266 300.206C168.098 300.096 167.834 299.949 167.474 299.766C167.034 299.546 166.675 299.341 166.396 299.15C166.118 298.959 165.879 298.714 165.681 298.413C165.483 298.112 165.384 297.749 165.384 297.324C165.384 296.899 165.483 296.528 165.681 296.213C165.887 295.89 166.173 295.645 166.539 295.476C166.906 295.3 167.324 295.212 167.793 295.212C168.285 295.212 168.721 295.307 169.102 295.498C169.484 295.681 169.781 295.942 169.993 296.279C170.206 296.616 170.312 297.005 170.312 297.445V297.665C170.312 297.702 170.298 297.735 170.268 297.764C170.246 297.786 170.217 297.797 170.18 297.797H168.915C168.879 297.797 168.846 297.786 168.816 297.764C168.794 297.735 168.783 297.702 168.783 297.665V297.467C168.783 297.203 168.692 296.983 168.508 296.807C168.325 296.631 168.076 296.543 167.76 296.543C167.496 296.543 167.287 296.613 167.133 296.752C166.987 296.884 166.913 297.071 166.913 297.313C166.913 297.482 166.957 297.628 167.045 297.753C167.133 297.878 167.269 297.999 167.452 298.116C167.636 298.226 167.914 298.373 168.288 298.556L168.519 298.688C168.945 298.923 169.275 299.128 169.509 299.304C169.751 299.473 169.953 299.689 170.114 299.953C170.276 300.217 170.356 300.536 170.356 300.91C170.356 301.577 170.129 302.109 169.674 302.505C169.227 302.894 168.629 303.088 167.881 303.088Z" fill="#B1B4C5"/>
<defs>
<linearGradient id="paint0_linear_0_120" x1="215" y1="85" x2="215" y2="177.397" gradientUnits="userSpaceOnUse">
<stop stop-color="white" stop-opacity="0.0966455"/>
<stop offset="1" stop-color="white" stop-opacity="0.01"/>
</linearGradient>
<linearGradient id="paint1_linear_0_120" x1="0" y1="85" x2="0" y2="177.7" gradientUnits="userSpaceOnUse">
<stop stop-color="white" stop-opacity="0.0966455"/>
<stop offset="1" stop-color="white" stop-opacity="0.01"/>
</linearGradient>
<linearGradient id="paint2_linear_0_120" x1="108" y1="0" x2="108" y2="92.6995" gradientUnits="userSpaceOnUse">
<stop stop-color="white" stop-opacity="0.0966455"/>
<stop offset="1" stop-color="white" stop-opacity="0.01"/>
</linearGradient>
<linearGradient id="paint3_linear_0_120" x1="173" y1="207" x2="173" y2="299.7" gradientUnits="userSpaceOnUse">
<stop stop-color="white" stop-opacity="0.0966455"/>
<stop offset="1" stop-color="white" stop-opacity="0.01"/>
</linearGradient>
<linearGradient id="paint4_linear_0_120" x1="42" y1="207" x2="42" y2="299.7" gradientUnits="userSpaceOnUse">
<stop stop-color="white" stop-opacity="0.0966455"/>
<stop offset="1" stop-color="white" stop-opacity="0.01"/>
</linearGradient>
<clipPath id="clip0_0_120">
<rect width="82" height="22" fill="white" transform="translate(114.902 148.207) rotate(40)"/>
</clipPath>
<clipPath id="clip1_0_120">
<rect width="82" height="22" fill="white" transform="translate(133.827 200.458) rotate(-40)"/>
</clipPath>
<clipPath id="clip2_0_120">
<rect width="82" height="22" fill="white" transform="translate(185.715 194.437) rotate(-110)"/>
</clipPath>
<clipPath id="clip3_0_120">
<rect width="82" height="22" fill="white" transform="translate(153.087 118.05) rotate(110)"/>
</clipPath>
</defs>
</svg>
