<svg width="63" height="63" viewBox="0 0 63 63" fill="none" xmlns="http://www.w3.org/2000/svg">
<path d="M18.3542 28.2702L23.7179 20.7269C21.4884 20.3553 17.3945 20.2729 14.041 23.627C8.7548 28.9142 6.61396 40.3358 6.16765 43.1006L19.6025 56.5381C22.021 56.331 32.7292 54.9011 43.0472 44.581C43.1568 44.3582 45.6701 42.5006 43.6152 40.4453C42.6344 39.4643 41.0109 39.4826 40.0088 40.4849C39.4986 40.9952 38.7052 41.0027 38.2056 40.503C37.706 40.0034 37.7135 39.2097 38.2237 38.6995L41.8697 35.0528C43.7226 33.1995 41.976 30.0731 39.3901 30.8241L36.405 33.38C35.8599 33.8553 35.0497 33.7729 34.6017 33.255C34.1387 32.7188 34.2377 31.907 34.7645 31.45C45.1913 22.3 43.6693 23.4019 50.3772 17.1131C52.8836 15.0259 49.7308 11.334 47.261 13.4478L31.0331 28.0436C30.5611 28.4458 29.8375 28.4534 29.3729 28.0253C28.8368 27.5622 28.8245 26.895 29.1749 26.3679L40.4942 8.76736C42.1488 6.52623 38.8924 4.03714 37.1497 6.29649L20.4134 29.7082C20.0098 30.2918 19.1965 30.4257 18.6421 30.0175C18.0861 29.6442 17.9339 28.8338 18.3542 28.2702Z" fill="#3B4262"/>
</svg>
