<svg width="45" height="60" viewBox="0 0 45 60" fill="none" xmlns="http://www.w3.org/2000/svg">
<g id="001-five-fingers">
<g id="vulcan-salute">
<path id="Path" d="M44.0415 32.4218L43.1785 31.5627C41.1164 29.5086 37.7455 29.0613 35.228 30.5018L29.8522 33.5609L30.9726 9.05945C30.9726 7.00543 29.2944 5.33349 27.2298 5.33349C26.784 5.33349 26.3549 5.41186 25.9568 5.55539L26.0903 4.24058C26.0905 2.16286 24.3859 0.473145 22.2928 0.473145C20.3571 0.473145 18.7336 1.91851 18.5285 3.77192L15.079 24.5213C15.0337 24.8037 14.5425 24.7752 14.4901 24.5973L10.4159 7.96198C9.9701 6.41466 8.53018 5.3336 6.91392 5.3336C5.79587 5.3336 4.75643 5.83437 4.06038 6.70777C3.36662 7.58116 3.11397 8.70483 3.37143 9.78829L4.16291 13.1381C3.7123 13.1013 3.2594 13.1618 2.82791 13.3066C1.22115 13.8394 0.241323 15.4366 0.501183 17.1239L2.89942 30.8508C2.89942 36.2666 3.85304 40.2738 4.65402 42.6803C5.10932 44.0532 5.34057 45.4973 5.34057 46.9723C5.34057 48.2562 5.16172 49.5343 4.80655 50.7683L2.94702 57.2497C2.84209 57.6164 2.91601 58.0103 3.14486 58.3153C3.37612 58.6191 3.7361 58.7983 4.11988 58.7983H26.0903C26.4837 58.7983 26.8508 58.6108 27.0797 58.294C27.3109 57.9772 27.3729 57.5689 27.2489 57.1987C27.237 57.1666 26.2167 54.0292 27.1822 49.7609C28.4076 48.7711 32.6962 45.2991 34.2363 43.899C36.7824 41.5838 43.7577 34.4308 44.0534 34.1271C44.5183 33.6512 44.5135 32.8917 44.0415 32.4218Z" fill="#3B4262"/>
</g>
</g>
</svg>
